<svg width="1440" height="1024" viewBox="0 0 1440 1024" fill="none" xmlns="http://www.w3.org/2000/svg">
<rect width="1440" height="1024" fill="#F5F5F5"/>
<g clip-path="url(#clip0_0_1)">
<rect width="1440" height="1024" fill="#346830"/>
<path opacity="0.1" d="M462.177 713.124C475.798 685.967 492.316 660.395 507.818 634.097C508.596 632.79 509.547 632.651 510.672 633.679C521.943 643.987 532.486 654.456 542.302 665.087C555.512 679.381 566.192 695.856 577.651 711.384C579.9 714.453 580.534 717.94 579.554 721.846C579.366 722.565 578.912 722.933 578.192 722.947C524.292 723.916 469.204 724.071 414.332 725.37C370.731 726.398 327.209 726.941 283.767 727C283.648 727.002 283.531 726.975 283.424 726.921C283.317 726.868 283.225 726.79 283.153 726.694C283.081 726.597 283.033 726.485 283.012 726.366C282.991 726.247 282.998 726.125 283.032 726.009C286.966 712.089 290.793 698.139 294.512 684.161C299.225 666.408 306.057 650.11 314.403 634.207C314.624 633.784 314.998 633.465 315.445 633.317C315.893 633.169 316.38 633.204 316.802 633.414C323.606 636.733 329.292 641.571 333.861 647.929C347.611 666.974 359.351 687.34 369.08 709.027C370.01 711.098 371.826 713.3 373.21 715.15C373.315 715.292 373.456 715.402 373.617 715.471C373.777 715.54 373.953 715.564 374.126 715.542C374.299 715.52 374.463 715.451 374.602 715.344C374.741 715.237 374.85 715.094 374.918 714.93C377.685 708.367 380.308 701.619 382.788 694.689C390.117 674.139 399.911 654.427 409.618 634.868C409.841 634.414 410.176 634.026 410.589 633.742C411.002 633.458 411.481 633.286 411.98 633.245C412.478 633.203 412.98 633.291 413.437 633.502C413.894 633.713 414.291 634.039 414.591 634.45C420.068 641.938 425.207 649.508 430.006 657.158C441.314 675.24 450.091 694.402 459.756 713.146C459.872 713.371 460.048 713.56 460.262 713.691C460.477 713.821 460.723 713.889 460.973 713.887C461.223 713.885 461.468 713.812 461.68 713.678C461.893 713.543 462.065 713.352 462.177 713.124Z" fill="white"/>
<path opacity="0.1" d="M409.122 915.209C410.57 898.554 415.678 879.625 423.463 864.856C437.259 838.709 457.171 818.647 483.201 804.671C489.157 801.469 492.874 810.537 493.489 814.831C496.123 833.167 495.313 850.326 491.06 866.307C489.274 872.981 486.479 880.657 482.469 886.089C480.264 889.082 477.045 892.035 472.81 894.948C459.859 903.881 446.41 909.747 432.829 915.957C426.639 918.785 417.507 924.846 414.463 931.774C413.546 933.839 413.312 936.303 413.761 939.166C414.522 944.024 414.805 948.818 414.609 953.546C414.531 955.362 413.609 956.17 411.844 955.97L407.717 955.506C405.883 955.297 404.873 954.255 404.687 952.379C402.297 927.998 395.863 904.515 385.385 881.929C380.789 872.038 373.692 863.763 368.218 854.126C368.094 853.907 368.02 853.662 368.004 853.409C367.987 853.156 368.027 852.902 368.122 852.667C368.217 852.431 368.363 852.221 368.55 852.051C368.736 851.881 368.958 851.757 369.199 851.687C371.667 850.969 374.311 850.61 377.131 850.61C381.785 850.61 384.419 855.339 386.424 858.975C389.507 864.581 392.029 869.948 393.99 875.076C399.082 888.414 403.868 901.826 408.346 915.314C408.375 915.4 408.432 915.473 408.508 915.521C408.584 915.568 408.673 915.587 408.763 915.575C408.853 915.563 408.937 915.52 409.002 915.454C409.067 915.388 409.109 915.301 409.122 915.209Z" fill="white"/>
<g opacity="0.1">
<path d="M89.1934 837.998C75.2157 826.481 69.2595 812.846 68.8753 794.901C68.7632 789.787 66.6257 788.675 62.4628 791.565L59.5568 793.586C55.7141 796.232 54.193 799.876 54.9936 804.518C58.3559 824.192 71.2769 853.509 92.5558 857.77C93.0519 857.871 93.5637 857.864 94.057 857.749C94.5503 857.635 95.0136 857.414 95.4161 857.103C95.8185 856.792 96.1508 856.397 96.3906 855.945C96.6304 855.493 96.7723 854.994 96.8067 854.482C97.239 848.054 93.9968 841.943 89.1934 837.998Z" fill="white"/>
<path d="M187.735 826.117C189.928 821.101 189.976 816.264 187.879 811.605C176.255 785.722 153.103 793.368 135.162 807.027C122.385 816.718 101.491 835.37 104.565 852.609C104.647 853.076 104.846 853.513 105.143 853.88C105.44 854.247 105.825 854.532 106.261 854.707C106.698 854.882 107.173 854.943 107.641 854.882C108.109 854.822 108.554 854.643 108.936 854.362C118.543 847.203 125.796 846.814 137.084 848.274C154.64 850.49 180.266 843.21 187.735 826.117Z" fill="white"/>
<path d="M141.744 884.139C154.857 889.009 168.987 893.708 184.133 898.237C188.536 899.552 192.403 899.82 195.733 899.041C202.53 897.434 212.089 889.52 207.334 881.339C205.188 877.638 202.386 874.757 198.928 872.695C173.638 857.647 142.344 850.83 113.932 859.328C112.877 859.648 111.968 860.334 111.365 861.266C110.763 862.198 110.507 863.314 110.642 864.416C111.723 873.109 132.593 880.73 141.744 884.139Z" fill="white"/>
<path d="M75.7208 922.733C87.1288 908.221 95.1744 886.015 95.6067 868.338C95.7187 863.452 93.4532 861.552 88.8099 862.64C67.6992 867.583 47.5492 882.265 39.2394 903.376C35.9971 911.679 32.8269 926.312 42.2895 931.401C53.9136 937.659 67.8673 932.765 75.7208 922.733Z" fill="white"/>
<path d="M126.611 950.954C130.054 959.086 135.617 962.276 143.303 960.523C155.719 957.698 159.658 941.433 157.641 930.476C154.447 913.115 143.423 902.67 130.382 891.64C123.369 885.715 116.292 880.252 109.151 875.253C105.765 872.891 102.042 874.912 101.177 878.686C97.1186 896.655 99.3281 916.597 112.393 929.356C118.173 935.005 122.913 942.204 126.611 950.954Z" fill="white"/>
<path d="M201.593 966.489C206.716 968.956 210.687 969.605 213.505 968.436C221.983 964.955 222.103 952.244 219.533 944.964C210.527 919.495 177.264 901.599 153.343 894.489C150.765 893.726 148.139 893.596 145.466 894.099C144.089 894.359 143.488 895.179 143.664 896.558C143.857 898.019 144.473 899.261 145.514 900.284C148.972 903.725 152.583 907.012 156.345 910.145C165.255 917.572 170.419 927.384 174.982 938.439C180.186 951.1 189.056 960.45 201.593 966.489Z" fill="white"/>
<path d="M68.8799 794.901C69.2642 812.846 75.2204 826.481 89.1981 837.998C94.0015 841.943 97.2437 848.054 96.8114 854.482C96.777 854.994 96.6351 855.493 96.3953 855.945C96.1555 856.397 95.8232 856.792 95.4208 857.103C95.0183 857.414 94.555 857.635 94.0617 857.749C93.5684 857.864 93.0566 857.871 92.5604 857.77C71.2816 853.509 58.3606 824.192 54.9983 804.518C54.1977 799.876 55.7188 796.232 59.5614 793.586L62.4675 791.565C66.6304 788.675 68.7679 789.787 68.8799 794.901Z" fill="white"/>
<path d="M187.735 826.117C180.266 843.21 154.64 850.49 137.084 848.274C125.796 846.814 118.543 847.203 108.936 854.362C108.554 854.643 108.109 854.822 107.641 854.882C107.173 854.943 106.698 854.882 106.261 854.707C105.825 854.532 105.44 854.247 105.143 853.88C104.846 853.513 104.647 853.076 104.565 852.609C101.491 835.37 122.385 816.718 135.162 807.027C153.103 793.368 176.255 785.722 187.879 811.605C189.976 816.264 189.928 821.101 187.735 826.117Z" fill="white"/>
<path d="M141.744 884.139C132.593 880.73 111.723 873.109 110.642 864.416C110.507 863.314 110.763 862.198 111.365 861.266C111.968 860.334 112.877 859.648 113.932 859.328C142.344 850.83 173.638 857.647 198.928 872.695C202.386 874.757 205.188 877.638 207.334 881.339C212.089 889.52 202.53 897.434 195.733 899.041C192.403 899.82 188.536 899.552 184.133 898.237C168.987 893.708 154.857 889.009 141.744 884.139Z" fill="white"/>
<path d="M95.6067 868.338C95.1744 886.015 87.1288 908.221 75.7208 922.733C67.8673 932.765 53.9136 937.659 42.2895 931.401C32.8269 926.312 35.9971 911.679 39.2394 903.376C47.5492 882.265 67.6992 867.583 88.8099 862.64C93.4532 861.552 95.7187 863.452 95.6067 868.338Z" fill="white"/>
<path d="M126.616 950.951C122.917 942.202 118.178 935.003 112.398 929.354C99.3328 916.595 97.1233 896.653 101.182 878.684C102.047 874.909 105.769 872.888 109.156 875.25C116.297 880.25 123.374 885.712 130.386 891.637C143.428 902.667 154.451 913.113 157.645 930.474C159.663 941.431 155.724 957.696 143.307 960.52C135.622 962.273 130.058 959.084 126.616 950.951Z" fill="white"/>
<path d="M201.593 966.489C189.056 960.45 180.186 951.1 174.982 938.439C170.419 927.384 165.255 917.572 156.345 910.145C152.583 907.012 148.972 903.725 145.514 900.284C144.473 899.261 143.857 898.019 143.664 896.558C143.488 895.179 144.089 894.359 145.466 894.099C148.139 893.596 150.765 893.726 153.343 894.489C177.264 901.599 210.527 919.495 219.533 944.964C222.103 952.244 221.983 964.955 213.505 968.436C210.687 969.605 206.716 968.956 201.593 966.489Z" fill="white"/>
</g>
<path opacity="0.1" d="M155.414 591.933C152.546 588.344 151.513 588.825 152.315 593.374C154.256 604.52 155.165 615.203 155.04 625.425C155.028 626.069 154.842 626.698 154.501 627.241C154.161 627.785 153.68 628.223 153.111 628.506C152.542 628.79 151.908 628.909 151.277 628.85C150.646 628.791 150.044 628.556 149.535 628.171C147.112 626.322 144.992 624.184 143.175 621.755C131.168 605.752 122.215 587.339 116.318 566.515C116.122 565.808 115.659 565.527 114.929 565.672C114.555 565.744 114.261 565.998 114.047 566.433C113.869 566.832 113.753 567.24 113.699 567.657C112.916 575.558 111.232 583.469 108.649 591.389C108.433 592.058 108.082 592.673 107.617 593.194C107.152 593.716 106.584 594.132 105.949 594.417C105.314 594.701 104.627 594.847 103.932 594.845C103.237 594.844 102.55 594.694 101.914 594.407C89.9424 588.97 84.8115 568.363 84.6779 556.184C84.5176 543.208 84.1435 530.612 83.5556 518.397C83.1548 509.535 78.7989 502.82 71.0491 498.715C57.1263 491.375 42.8293 481.316 39.1682 465.386C38.5803 462.812 39.5335 461.163 42.0276 460.438C45.8223 459.351 50.7127 460.384 54.3471 462.477C66.6131 469.491 79.5471 478.38 92.882 481.126C98.6542 482.295 103.545 480.474 107.473 476.532C115.142 468.784 122.144 463.782 133.929 467.017C140.155 468.73 167.654 479.658 151.112 489.662C143.282 494.42 132.566 499.123 127.729 507.197C127.284 507.922 127.123 508.71 127.248 509.562C128.477 517.935 141.385 523.1 148.279 524.459C162.995 527.395 176.205 532.28 187.91 539.112C189.344 539.946 190.399 541.318 190.848 542.935C191.298 544.551 191.106 546.283 190.315 547.757C187.536 552.949 174.415 556.973 168.91 558.468C168.525 558.576 168.17 558.772 167.872 559.041C167.573 559.31 167.339 559.645 167.187 560.02C167.035 560.395 166.969 560.8 166.994 561.205C167.02 561.61 167.136 562.003 167.333 562.355C172.232 570.946 179.002 578.911 187.643 586.251C198.742 595.675 208.407 604.601 216.637 613.029C219.363 615.82 220.815 619.009 220.993 622.598C221.047 623.576 220.78 624.446 220.192 625.208C218.57 627.256 216.397 628.823 213.671 629.911C192.934 638.202 182.886 628.932 171.021 612.485C166.015 605.526 160.813 598.675 155.414 591.933Z" fill="white"/>
<path opacity="0.1" d="M1104.18 307.124C1117.8 279.967 1134.32 254.395 1149.82 228.097C1150.6 226.79 1151.55 226.651 1152.67 227.679C1163.94 237.987 1174.49 248.456 1184.3 259.087C1197.51 273.381 1208.19 289.856 1219.65 305.384C1221.9 308.453 1222.53 311.94 1221.55 315.846C1221.37 316.565 1220.91 316.933 1220.19 316.947C1166.29 317.916 1111.2 318.071 1056.33 319.37C1012.73 320.398 969.209 320.941 925.767 321C925.648 321.002 925.531 320.975 925.424 320.921C925.317 320.868 925.225 320.79 925.153 320.694C925.081 320.597 925.033 320.485 925.012 320.366C924.991 320.247 924.998 320.125 925.032 320.009C928.966 306.089 932.793 292.139 936.512 278.161C941.225 260.408 948.057 244.11 956.403 228.207C956.624 227.784 956.998 227.465 957.445 227.317C957.893 227.169 958.38 227.204 958.802 227.414C965.606 230.733 971.292 235.571 975.861 241.929C989.611 260.974 1001.35 281.34 1011.08 303.027C1012.01 305.098 1013.83 307.3 1015.21 309.15C1015.32 309.292 1015.46 309.402 1015.62 309.471C1015.78 309.54 1015.95 309.564 1016.13 309.542C1016.3 309.52 1016.46 309.451 1016.6 309.344C1016.74 309.237 1016.85 309.094 1016.92 308.93C1019.69 302.367 1022.31 295.619 1024.79 288.689C1032.12 268.139 1041.91 248.427 1051.62 228.868C1051.84 228.414 1052.18 228.026 1052.59 227.742C1053 227.458 1053.48 227.286 1053.98 227.245C1054.48 227.203 1054.98 227.291 1055.44 227.502C1055.89 227.713 1056.29 228.039 1056.59 228.45C1062.07 235.938 1067.21 243.508 1072.01 251.158C1083.31 269.24 1092.09 288.402 1101.76 307.146C1101.87 307.371 1102.05 307.56 1102.26 307.691C1102.48 307.821 1102.72 307.889 1102.97 307.887C1103.22 307.885 1103.47 307.812 1103.68 307.678C1103.89 307.543 1104.06 307.352 1104.18 307.124Z" fill="white"/>
<path opacity="0.1" d="M1042.18 14.124C1055.8 -13.0332 1072.32 -38.6046 1087.82 -64.9027C1088.6 -66.2096 1089.55 -66.3491 1090.67 -65.3212C1101.94 -55.0134 1112.49 -44.544 1122.3 -33.9132C1135.51 -19.6188 1146.19 -3.14384 1157.65 12.384C1159.9 15.4528 1160.53 18.9402 1159.55 22.846C1159.37 23.5655 1158.91 23.9326 1158.19 23.9473C1104.29 24.9164 1049.2 25.0706 994.332 26.37C950.731 27.3979 907.209 27.9412 863.767 27.9999C863.648 28.0015 863.531 27.9746 863.424 27.9215C863.317 27.8683 863.225 27.7903 863.153 27.6938C863.081 27.5973 863.033 27.4851 863.012 27.3661C862.991 27.247 862.998 27.1247 863.032 27.0088C866.966 13.0888 870.793 -0.860549 874.512 -14.8393C879.225 -32.5917 886.057 -48.8904 894.403 -64.7926C894.624 -65.2158 894.998 -65.535 895.445 -65.6829C895.893 -65.8308 896.38 -65.7959 896.802 -65.5855C903.606 -62.2671 909.292 -57.4288 913.861 -51.0709C927.611 -32.0263 939.351 -11.6603 949.08 10.0273C950.01 12.0977 951.826 14.3002 953.21 16.1503C953.315 16.2917 953.456 16.4023 953.617 16.4711C953.777 16.5398 953.953 16.5642 954.126 16.5419C954.299 16.5196 954.463 16.4513 954.602 16.3439C954.741 16.2365 954.85 16.0938 954.918 15.9301C957.685 9.36653 960.308 2.61944 962.788 -4.31118C970.117 -24.8608 979.911 -44.5734 989.618 -64.1319C989.841 -64.5861 990.176 -64.9739 990.589 -65.2581C991.002 -65.5423 991.481 -65.7135 991.98 -65.7555C992.478 -65.7974 992.98 -65.7087 993.437 -65.4977C993.894 -65.2868 994.291 -64.9606 994.591 -64.5504C1000.07 -57.0618 1005.21 -49.4924 1010.01 -41.8423C1021.31 -23.7595 1030.09 -4.5975 1039.76 14.146C1039.87 14.3715 1040.05 14.5599 1040.26 14.6906C1040.48 14.8213 1040.72 14.8892 1040.97 14.887C1041.22 14.8847 1041.47 14.8123 1041.68 14.6777C1041.89 14.5431 1042.06 14.3515 1042.18 14.124Z" fill="white"/>
<path opacity="0.1" d="M1051.12 509.209C1052.57 492.554 1057.68 473.625 1065.46 458.856C1079.26 432.709 1099.17 412.647 1125.2 398.671C1131.16 395.469 1134.87 404.537 1135.49 408.831C1138.12 427.167 1137.31 444.326 1133.06 460.307C1131.27 466.981 1128.48 474.657 1124.47 480.089C1122.26 483.082 1119.04 486.035 1114.81 488.948C1101.86 497.881 1088.41 503.747 1074.83 509.957C1068.64 512.785 1059.51 518.846 1056.46 525.774C1055.55 527.839 1055.31 530.303 1055.76 533.166C1056.52 538.024 1056.8 542.818 1056.61 547.546C1056.53 549.362 1055.61 550.17 1053.84 549.97L1049.72 549.506C1047.88 549.297 1046.87 548.255 1046.69 546.379C1044.3 521.998 1037.86 498.515 1027.38 475.929C1022.79 466.038 1015.69 457.763 1010.22 448.126C1010.09 447.907 1010.02 447.662 1010 447.409C1009.99 447.156 1010.03 446.902 1010.12 446.667C1010.22 446.431 1010.36 446.221 1010.55 446.051C1010.74 445.881 1010.96 445.757 1011.2 445.687C1013.67 444.969 1016.31 444.61 1019.13 444.61C1023.78 444.61 1026.42 449.339 1028.42 452.975C1031.51 458.581 1034.03 463.948 1035.99 469.076C1041.08 482.414 1045.87 495.826 1050.35 509.314C1050.38 509.4 1050.43 509.473 1050.51 509.521C1050.58 509.568 1050.67 509.587 1050.76 509.575C1050.85 509.563 1050.94 509.52 1051 509.454C1051.07 509.388 1051.11 509.301 1051.12 509.209Z" fill="white"/>
<g opacity="0.1">
<path d="M731.193 431.998C717.216 420.481 711.26 406.846 710.875 388.901C710.763 383.787 708.626 382.675 704.463 385.565L701.557 387.586C697.714 390.232 696.193 393.876 696.994 398.518C700.356 418.192 713.277 447.509 734.556 451.77C735.052 451.871 735.564 451.864 736.057 451.749C736.55 451.635 737.014 451.414 737.416 451.103C737.819 450.792 738.151 450.397 738.391 449.945C738.63 449.493 738.772 448.994 738.807 448.482C739.239 442.054 735.997 435.943 731.193 431.998Z" fill="white"/>
<path d="M829.735 420.117C831.928 415.101 831.976 410.264 829.879 405.605C818.255 379.722 795.103 387.368 777.162 401.027C764.385 410.718 743.491 429.37 746.565 446.609C746.647 447.076 746.846 447.513 747.143 447.88C747.44 448.247 747.825 448.532 748.261 448.707C748.698 448.882 749.173 448.943 749.641 448.882C750.109 448.822 750.554 448.643 750.936 448.362C760.543 441.203 767.796 440.814 779.084 442.274C796.64 444.49 822.266 437.21 829.735 420.117Z" fill="white"/>
<path d="M783.744 478.139C796.857 483.009 810.987 487.708 826.133 492.237C830.536 493.552 834.403 493.82 837.733 493.041C844.53 491.434 854.089 483.52 849.334 475.339C847.188 471.638 844.386 468.757 840.928 466.695C815.638 451.647 784.344 444.83 755.932 453.328C754.877 453.648 753.968 454.334 753.365 455.266C752.763 456.198 752.507 457.314 752.642 458.416C753.723 467.109 774.593 474.73 783.744 478.139Z" fill="white"/>
<path d="M717.721 516.733C729.129 502.221 737.174 480.015 737.607 462.338C737.719 457.452 735.453 455.552 730.81 456.64C709.699 461.583 689.549 476.265 681.239 497.376C677.997 505.679 674.827 520.312 684.289 525.401C695.914 531.659 709.867 526.765 717.721 516.733Z" fill="white"/>
<path d="M768.611 544.954C772.054 553.086 777.617 556.276 785.303 554.523C797.719 551.698 801.658 535.433 799.641 524.476C796.447 507.115 785.423 496.67 772.382 485.64C765.369 479.715 758.292 474.252 751.151 469.253C747.765 466.891 744.042 468.912 743.177 472.686C739.119 490.655 741.328 510.597 754.393 523.356C760.173 529.005 764.913 536.204 768.611 544.954Z" fill="white"/>
<path d="M843.593 560.489C848.716 562.956 852.687 563.605 855.505 562.436C863.983 558.955 864.103 546.244 861.533 538.964C852.527 513.495 819.264 495.599 795.343 488.489C792.765 487.726 790.139 487.596 787.466 488.099C786.089 488.359 785.488 489.179 785.664 490.558C785.857 492.019 786.473 493.261 787.514 494.284C790.972 497.725 794.583 501.012 798.345 504.145C807.255 511.572 812.419 521.384 816.982 532.439C822.186 545.1 831.056 554.45 843.593 560.489Z" fill="white"/>
<path d="M710.88 388.901C711.264 406.846 717.22 420.481 731.198 431.998C736.001 435.943 739.244 442.054 738.811 448.482C738.777 448.994 738.635 449.493 738.395 449.945C738.155 450.397 737.823 450.792 737.421 451.103C737.018 451.414 736.555 451.635 736.062 451.749C735.568 451.864 735.057 451.871 734.56 451.77C713.282 447.509 700.361 418.192 696.998 398.518C696.198 393.876 697.719 390.232 701.561 387.586L704.467 385.565C708.63 382.675 710.768 383.787 710.88 388.901Z" fill="white"/>
<path d="M829.735 420.117C822.266 437.21 796.64 444.49 779.084 442.274C767.796 440.814 760.543 441.203 750.936 448.362C750.554 448.643 750.109 448.822 749.641 448.882C749.173 448.943 748.698 448.882 748.261 448.707C747.825 448.532 747.44 448.247 747.143 447.88C746.846 447.513 746.647 447.076 746.565 446.609C743.491 429.37 764.385 410.718 777.162 401.027C795.103 387.368 818.255 379.722 829.879 405.605C831.976 410.264 831.928 415.101 829.735 420.117Z" fill="white"/>
<path d="M783.744 478.139C774.593 474.73 753.723 467.109 752.642 458.416C752.507 457.314 752.763 456.198 753.365 455.266C753.968 454.334 754.877 453.648 755.932 453.328C784.344 444.83 815.638 451.647 840.928 466.695C844.386 468.757 847.188 471.638 849.334 475.339C854.089 483.52 844.53 491.434 837.733 493.041C834.403 493.82 830.536 493.552 826.133 492.237C810.987 487.708 796.857 483.009 783.744 478.139Z" fill="white"/>
<path d="M737.607 462.338C737.174 480.015 729.129 502.221 717.721 516.733C709.867 526.765 695.914 531.659 684.289 525.401C674.827 520.312 677.997 505.679 681.239 497.376C689.549 476.265 709.699 461.583 730.81 456.64C735.453 455.552 737.719 457.452 737.607 462.338Z" fill="white"/>
<path d="M768.616 544.951C764.917 536.202 760.178 529.003 754.398 523.354C741.333 510.595 739.123 490.653 743.182 472.684C744.047 468.909 747.769 466.888 751.156 469.25C758.297 474.25 765.374 479.712 772.386 485.637C785.428 496.667 796.451 507.113 799.645 524.474C801.663 535.431 797.724 551.696 785.307 554.52C777.622 556.273 772.058 553.084 768.616 544.951Z" fill="white"/>
<path d="M843.593 560.489C831.056 554.45 822.186 545.1 816.982 532.439C812.419 521.384 807.255 511.572 798.345 504.145C794.583 501.012 790.972 497.725 787.514 494.284C786.473 493.261 785.857 492.019 785.664 490.558C785.488 489.179 786.089 488.359 787.466 488.099C790.139 487.596 792.765 487.726 795.343 488.489C819.264 495.599 852.527 513.495 861.533 538.964C864.103 546.244 863.983 558.955 855.505 562.436C852.687 563.605 848.716 562.956 843.593 560.489Z" fill="white"/>
</g>
<path opacity="0.1" d="M797.414 185.933C794.546 182.344 793.513 182.825 794.315 187.374C796.256 198.52 797.165 209.203 797.04 219.425C797.028 220.069 796.842 220.698 796.501 221.241C796.161 221.785 795.68 222.223 795.111 222.506C794.542 222.79 793.908 222.909 793.277 222.85C792.646 222.791 792.044 222.556 791.535 222.171C789.112 220.322 786.992 218.184 785.175 215.755C773.168 199.752 764.215 181.339 758.318 160.515C758.122 159.808 757.659 159.527 756.929 159.672C756.555 159.744 756.261 159.998 756.047 160.433C755.869 160.832 755.753 161.24 755.699 161.657C754.916 169.558 753.232 177.469 750.649 185.389C750.433 186.058 750.082 186.673 749.617 187.194C749.152 187.716 748.584 188.132 747.949 188.417C747.314 188.701 746.627 188.847 745.932 188.845C745.237 188.844 744.55 188.694 743.914 188.407C731.942 182.97 726.812 162.363 726.678 150.184C726.518 137.208 726.144 124.612 725.556 112.397C725.155 103.535 720.799 96.8199 713.049 92.7149C699.126 85.3749 684.829 75.3163 681.168 59.3858C680.58 56.8123 681.533 55.163 684.028 54.4381C687.822 53.3507 692.713 54.3837 696.347 56.477C708.613 63.4908 721.547 72.3804 734.882 75.1261C740.654 76.295 745.545 74.4736 749.473 70.5318C757.142 62.784 764.144 57.7819 775.929 61.0169C782.155 62.7296 809.654 73.658 793.112 83.6622C785.282 88.4196 774.566 93.1227 769.729 101.197C769.284 101.922 769.123 102.71 769.248 103.562C770.477 111.935 783.385 117.1 790.279 118.459C804.995 121.395 818.205 126.28 829.91 133.112C831.344 133.946 832.399 135.318 832.848 136.935C833.298 138.551 833.106 140.283 832.315 141.757C829.536 146.949 816.415 150.973 810.91 152.468C810.525 152.576 810.17 152.772 809.872 153.041C809.573 153.31 809.339 153.645 809.187 154.02C809.035 154.395 808.969 154.8 808.994 155.205C809.02 155.61 809.136 156.003 809.333 156.355C814.232 164.946 821.002 172.911 829.643 180.251C840.742 189.675 850.407 198.601 858.637 207.029C861.363 209.82 862.815 213.009 862.993 216.598C863.047 217.576 862.78 218.446 862.192 219.208C860.57 221.256 858.397 222.823 855.671 223.911C834.934 232.202 824.886 222.932 813.021 206.485C808.015 199.526 802.813 192.675 797.414 185.933Z" fill="white"/>
<path opacity="0.1" d="M475.414 508.933C472.546 505.344 471.513 505.825 472.315 510.374C474.256 521.52 475.165 532.203 475.04 542.425C475.028 543.069 474.842 543.698 474.501 544.241C474.161 544.785 473.68 545.223 473.111 545.506C472.542 545.79 471.908 545.909 471.277 545.85C470.646 545.791 470.044 545.556 469.535 545.171C467.112 543.322 464.992 541.184 463.175 538.755C451.168 522.752 442.215 504.339 436.318 483.515C436.122 482.808 435.659 482.527 434.929 482.672C434.555 482.744 434.261 482.998 434.047 483.433C433.869 483.832 433.753 484.24 433.699 484.657C432.916 492.558 431.232 500.469 428.649 508.389C428.433 509.058 428.082 509.673 427.617 510.194C427.152 510.716 426.584 511.132 425.949 511.417C425.314 511.701 424.627 511.847 423.932 511.845C423.237 511.844 422.55 511.694 421.914 511.407C409.942 505.97 404.812 485.363 404.678 473.184C404.518 460.208 404.144 447.612 403.556 435.397C403.155 426.535 398.799 419.82 391.049 415.715C377.126 408.375 362.829 398.316 359.168 382.386C358.58 379.812 359.533 378.163 362.028 377.438C365.822 376.351 370.713 377.384 374.347 379.477C386.613 386.491 399.547 395.38 412.882 398.126C418.654 399.295 423.545 397.474 427.473 393.532C435.142 385.784 442.144 380.782 453.929 384.017C460.155 385.73 487.654 396.658 471.112 406.662C463.282 411.42 452.566 416.123 447.729 424.197C447.284 424.922 447.123 425.71 447.248 426.562C448.477 434.935 461.385 440.1 468.279 441.459C482.995 444.395 496.205 449.28 507.91 456.112C509.344 456.946 510.399 458.318 510.848 459.935C511.298 461.551 511.106 463.283 510.315 464.757C507.536 469.949 494.415 473.973 488.91 475.468C488.525 475.576 488.17 475.772 487.872 476.041C487.573 476.31 487.339 476.645 487.187 477.02C487.035 477.395 486.969 477.8 486.994 478.205C487.02 478.61 487.136 479.003 487.333 479.355C492.232 487.946 499.002 495.911 507.643 503.251C518.742 512.675 528.407 521.601 536.637 530.029C539.363 532.82 540.815 536.009 540.993 539.598C541.047 540.576 540.78 541.446 540.192 542.208C538.57 544.256 536.397 545.823 533.671 546.911C512.934 555.202 502.886 545.932 491.021 529.485C486.015 522.526 480.813 515.675 475.414 508.933Z" fill="white"/>
<path opacity="0.1" d="M1189.18 1049.12C1202.8 1021.97 1219.32 996.395 1234.82 970.097C1235.6 968.79 1236.55 968.651 1237.67 969.679C1248.94 979.987 1259.49 990.456 1269.3 1001.09C1282.51 1015.38 1293.19 1031.86 1304.65 1047.38C1306.9 1050.45 1307.53 1053.94 1306.55 1057.85C1306.37 1058.57 1305.91 1058.93 1305.19 1058.95C1251.29 1059.92 1196.2 1060.07 1141.33 1061.37C1097.73 1062.4 1054.21 1062.94 1010.77 1063C1010.65 1063 1010.53 1062.97 1010.42 1062.92C1010.32 1062.87 1010.22 1062.79 1010.15 1062.69C1010.08 1062.6 1010.03 1062.49 1010.01 1062.37C1009.99 1062.25 1010 1062.12 1010.03 1062.01C1013.97 1048.09 1017.79 1034.14 1021.51 1020.16C1026.23 1002.41 1033.06 986.11 1041.4 970.207C1041.62 969.784 1042 969.465 1042.45 969.317C1042.89 969.169 1043.38 969.204 1043.8 969.414C1050.61 972.733 1056.29 977.571 1060.86 983.929C1074.61 1002.97 1086.35 1023.34 1096.08 1045.03C1097.01 1047.1 1098.83 1049.3 1100.21 1051.15C1100.32 1051.29 1100.46 1051.4 1100.62 1051.47C1100.78 1051.54 1100.95 1051.56 1101.13 1051.54C1101.3 1051.52 1101.46 1051.45 1101.6 1051.34C1101.74 1051.24 1101.85 1051.09 1101.92 1050.93C1104.69 1044.37 1107.31 1037.62 1109.79 1030.69C1117.12 1010.14 1126.91 990.427 1136.62 970.868C1136.84 970.414 1137.18 970.026 1137.59 969.742C1138 969.458 1138.48 969.286 1138.98 969.245C1139.48 969.203 1139.98 969.291 1140.44 969.502C1140.89 969.713 1141.29 970.039 1141.59 970.45C1147.07 977.938 1152.21 985.508 1157.01 993.158C1168.31 1011.24 1177.09 1030.4 1186.76 1049.15C1186.87 1049.37 1187.05 1049.56 1187.26 1049.69C1187.48 1049.82 1187.72 1049.89 1187.97 1049.89C1188.22 1049.88 1188.47 1049.81 1188.68 1049.68C1188.89 1049.54 1189.06 1049.35 1189.18 1049.12Z" fill="white"/>
<path opacity="0.1" d="M1144.12 1135.21C1145.57 1118.55 1150.68 1099.62 1158.46 1084.86C1172.26 1058.71 1192.17 1038.65 1218.2 1024.67C1224.16 1021.47 1227.87 1030.54 1228.49 1034.83C1231.12 1053.17 1230.31 1070.33 1226.06 1086.31C1224.27 1092.98 1221.48 1100.66 1217.47 1106.09C1215.26 1109.08 1212.04 1112.03 1207.81 1114.95C1194.86 1123.88 1181.41 1129.75 1167.83 1135.96C1161.64 1138.79 1152.51 1144.85 1149.46 1151.77C1148.55 1153.84 1148.31 1156.3 1148.76 1159.17C1149.52 1164.02 1149.8 1168.82 1149.61 1173.55C1149.53 1175.36 1148.61 1176.17 1146.84 1175.97L1142.72 1175.51C1140.88 1175.3 1139.87 1174.25 1139.69 1172.38C1137.3 1148 1130.86 1124.51 1120.38 1101.93C1115.79 1092.04 1108.69 1083.76 1103.22 1074.13C1103.09 1073.91 1103.02 1073.66 1103 1073.41C1102.99 1073.16 1103.03 1072.9 1103.12 1072.67C1103.22 1072.43 1103.36 1072.22 1103.55 1072.05C1103.74 1071.88 1103.96 1071.76 1104.2 1071.69C1106.67 1070.97 1109.31 1070.61 1112.13 1070.61C1116.78 1070.61 1119.42 1075.34 1121.42 1078.97C1124.51 1084.58 1127.03 1089.95 1128.99 1095.08C1134.08 1108.41 1138.87 1121.83 1143.35 1135.31C1143.38 1135.4 1143.43 1135.47 1143.51 1135.52C1143.58 1135.57 1143.67 1135.59 1143.76 1135.58C1143.85 1135.56 1143.94 1135.52 1144 1135.45C1144.07 1135.39 1144.11 1135.3 1144.12 1135.21Z" fill="white"/>
<g opacity="0.1">
<path d="M824.193 1058C810.216 1046.48 804.26 1032.85 803.875 1014.9C803.763 1009.79 801.626 1008.68 797.463 1011.56L794.557 1013.59C790.714 1016.23 789.193 1019.88 789.994 1024.52C793.356 1044.19 806.277 1073.51 827.556 1077.77C828.052 1077.87 828.564 1077.86 829.057 1077.75C829.55 1077.63 830.014 1077.41 830.416 1077.1C830.819 1076.79 831.151 1076.4 831.391 1075.94C831.63 1075.49 831.772 1074.99 831.807 1074.48C832.239 1068.05 828.997 1061.94 824.193 1058Z" fill="white"/>
<path d="M922.735 1046.12C924.928 1041.1 924.976 1036.26 922.879 1031.6C911.255 1005.72 888.103 1013.37 870.162 1027.03C857.385 1036.72 836.491 1055.37 839.565 1072.61C839.647 1073.08 839.846 1073.51 840.143 1073.88C840.44 1074.25 840.825 1074.53 841.261 1074.71C841.698 1074.88 842.173 1074.94 842.641 1074.88C843.109 1074.82 843.554 1074.64 843.936 1074.36C853.543 1067.2 860.796 1066.81 872.084 1068.27C889.64 1070.49 915.266 1063.21 922.735 1046.12Z" fill="white"/>
<path d="M876.744 1104.14C889.857 1109.01 903.987 1113.71 919.133 1118.24C923.536 1119.55 927.403 1119.82 930.733 1119.04C937.53 1117.43 947.089 1109.52 942.334 1101.34C940.188 1097.64 937.386 1094.76 933.928 1092.7C908.638 1077.65 877.344 1070.83 848.932 1079.33C847.877 1079.65 846.968 1080.33 846.365 1081.27C845.763 1082.2 845.507 1083.31 845.642 1084.42C846.723 1093.11 867.593 1100.73 876.744 1104.14Z" fill="white"/>
<path d="M810.721 1142.73C822.129 1128.22 830.174 1106.01 830.607 1088.34C830.719 1083.45 828.453 1081.55 823.81 1082.64C802.699 1087.58 782.549 1102.27 774.239 1123.38C770.997 1131.68 767.827 1146.31 777.289 1151.4C788.914 1157.66 802.867 1152.76 810.721 1142.73Z" fill="white"/>
<path d="M861.611 1170.95C865.054 1179.09 870.617 1182.28 878.303 1180.52C890.719 1177.7 894.658 1161.43 892.641 1150.48C889.447 1133.12 878.423 1122.67 865.382 1111.64C858.369 1105.71 851.292 1100.25 844.151 1095.25C840.765 1092.89 837.042 1094.91 836.177 1098.69C832.119 1116.66 834.328 1136.6 847.393 1149.36C853.173 1155 857.913 1162.2 861.611 1170.95Z" fill="white"/>
<path d="M936.593 1186.49C941.716 1188.96 945.687 1189.61 948.505 1188.44C956.983 1184.95 957.103 1172.24 954.533 1164.96C945.527 1139.5 912.264 1121.6 888.343 1114.49C885.765 1113.73 883.139 1113.6 880.466 1114.1C879.089 1114.36 878.488 1115.18 878.664 1116.56C878.857 1118.02 879.473 1119.26 880.514 1120.28C883.972 1123.73 887.583 1127.01 891.345 1130.15C900.255 1137.57 905.419 1147.38 909.982 1158.44C915.186 1171.1 924.056 1180.45 936.593 1186.49Z" fill="white"/>
<path d="M803.88 1014.9C804.264 1032.85 810.22 1046.48 824.198 1058C829.001 1061.94 832.244 1068.05 831.811 1074.48C831.777 1074.99 831.635 1075.49 831.395 1075.94C831.155 1076.4 830.823 1076.79 830.421 1077.1C830.018 1077.41 829.555 1077.63 829.062 1077.75C828.568 1077.86 828.057 1077.87 827.56 1077.77C806.282 1073.51 793.361 1044.19 789.998 1024.52C789.198 1019.88 790.719 1016.23 794.561 1013.59L797.467 1011.56C801.63 1008.68 803.768 1009.79 803.88 1014.9Z" fill="white"/>
<path d="M922.735 1046.12C915.266 1063.21 889.64 1070.49 872.084 1068.27C860.796 1066.81 853.543 1067.2 843.936 1074.36C843.554 1074.64 843.109 1074.82 842.641 1074.88C842.173 1074.94 841.698 1074.88 841.261 1074.71C840.825 1074.53 840.44 1074.25 840.143 1073.88C839.846 1073.51 839.647 1073.08 839.565 1072.61C836.491 1055.37 857.385 1036.72 870.162 1027.03C888.103 1013.37 911.255 1005.72 922.879 1031.6C924.976 1036.26 924.928 1041.1 922.735 1046.12Z" fill="white"/>
<path d="M876.744 1104.14C867.593 1100.73 846.723 1093.11 845.642 1084.42C845.507 1083.31 845.763 1082.2 846.365 1081.27C846.968 1080.33 847.877 1079.65 848.932 1079.33C877.344 1070.83 908.638 1077.65 933.928 1092.7C937.386 1094.76 940.188 1097.64 942.334 1101.34C947.089 1109.52 937.53 1117.43 930.733 1119.04C927.403 1119.82 923.536 1119.55 919.133 1118.24C903.987 1113.71 889.857 1109.01 876.744 1104.14Z" fill="white"/>
<path d="M830.607 1088.34C830.174 1106.01 822.129 1128.22 810.721 1142.73C802.867 1152.76 788.914 1157.66 777.289 1151.4C767.827 1146.31 770.997 1131.68 774.239 1123.38C782.549 1102.27 802.699 1087.58 823.81 1082.64C828.453 1081.55 830.719 1083.45 830.607 1088.34Z" fill="white"/>
<path d="M861.616 1170.95C857.917 1162.2 853.178 1155 847.398 1149.35C834.333 1136.59 832.123 1116.65 836.182 1098.68C837.047 1094.91 840.769 1092.89 844.156 1095.25C851.297 1100.25 858.374 1105.71 865.386 1111.64C878.428 1122.67 889.451 1133.11 892.645 1150.47C894.663 1161.43 890.724 1177.7 878.307 1180.52C870.622 1182.27 865.058 1179.08 861.616 1170.95Z" fill="white"/>
<path d="M936.593 1186.49C924.056 1180.45 915.186 1171.1 909.982 1158.44C905.419 1147.38 900.255 1137.57 891.345 1130.15C887.583 1127.01 883.972 1123.73 880.514 1120.28C879.473 1119.26 878.857 1118.02 878.664 1116.56C878.488 1115.18 879.089 1114.36 880.466 1114.1C883.139 1113.6 885.765 1113.73 888.343 1114.49C912.264 1121.6 945.527 1139.5 954.533 1164.96C957.103 1172.24 956.983 1184.95 948.505 1188.44C945.687 1189.61 941.716 1188.96 936.593 1186.49Z" fill="white"/>
</g>
<path opacity="0.1" d="M836.414 858.933C833.546 855.344 832.513 855.825 833.315 860.374C835.256 871.52 836.165 882.203 836.04 892.425C836.028 893.069 835.842 893.698 835.501 894.241C835.161 894.785 834.68 895.223 834.111 895.506C833.542 895.79 832.908 895.909 832.277 895.85C831.646 895.791 831.044 895.556 830.535 895.171C828.112 893.322 825.992 891.184 824.175 888.755C812.168 872.752 803.215 854.339 797.318 833.515C797.122 832.808 796.659 832.527 795.929 832.672C795.555 832.744 795.261 832.998 795.047 833.433C794.869 833.832 794.753 834.24 794.699 834.657C793.916 842.558 792.232 850.469 789.649 858.389C789.433 859.058 789.082 859.673 788.617 860.194C788.152 860.716 787.584 861.132 786.949 861.417C786.314 861.701 785.627 861.847 784.932 861.845C784.237 861.844 783.55 861.694 782.914 861.407C770.942 855.97 765.812 835.363 765.678 823.184C765.518 810.208 765.144 797.612 764.556 785.397C764.155 776.535 759.799 769.82 752.049 765.715C738.126 758.375 723.829 748.316 720.168 732.386C719.58 729.812 720.533 728.163 723.028 727.438C726.822 726.351 731.713 727.384 735.347 729.477C747.613 736.491 760.547 745.38 773.882 748.126C779.654 749.295 784.545 747.474 788.473 743.532C796.142 735.784 803.144 730.782 814.929 734.017C821.155 735.73 848.654 746.658 832.112 756.662C824.282 761.42 813.566 766.123 808.729 774.197C808.284 774.922 808.123 775.71 808.248 776.562C809.477 784.935 822.385 790.1 829.279 791.459C843.995 794.395 857.205 799.28 868.91 806.112C870.344 806.946 871.399 808.318 871.848 809.935C872.298 811.551 872.106 813.283 871.315 814.757C868.536 819.949 855.415 823.973 849.91 825.468C849.525 825.576 849.17 825.772 848.872 826.041C848.573 826.31 848.339 826.645 848.187 827.02C848.035 827.395 847.969 827.8 847.994 828.205C848.02 828.61 848.136 829.003 848.333 829.355C853.232 837.946 860.002 845.911 868.643 853.251C879.742 862.675 889.407 871.601 897.637 880.029C900.363 882.82 901.815 886.009 901.993 889.598C902.047 890.576 901.78 891.446 901.192 892.208C899.57 894.256 897.397 895.823 894.671 896.911C873.934 905.202 863.886 895.932 852.021 879.485C847.015 872.526 841.813 865.675 836.414 858.933Z" fill="white"/>
</g>
<path opacity="0.1" d="M1487.41 479.933C1484.55 476.344 1483.51 476.825 1484.31 481.374C1486.26 492.52 1487.17 503.203 1487.04 513.425C1487.03 514.069 1486.84 514.698 1486.5 515.241C1486.16 515.785 1485.68 516.223 1485.11 516.506C1484.54 516.79 1483.91 516.909 1483.28 516.85C1482.65 516.791 1482.04 516.556 1481.54 516.171C1479.11 514.322 1476.99 512.184 1475.18 509.755C1463.17 493.752 1454.22 475.339 1448.32 454.515C1448.12 453.808 1447.66 453.527 1446.93 453.672C1446.55 453.744 1446.26 453.998 1446.05 454.433C1445.87 454.832 1445.75 455.24 1445.7 455.657C1444.92 463.558 1443.23 471.469 1440.65 479.389C1440.43 480.058 1440.08 480.673 1439.62 481.194C1439.15 481.716 1438.58 482.132 1437.95 482.417C1437.31 482.701 1436.63 482.847 1435.93 482.845C1435.24 482.844 1434.55 482.694 1433.91 482.407C1421.94 476.97 1416.81 456.363 1416.68 444.184C1416.52 431.208 1416.14 418.612 1415.56 406.397C1415.15 397.535 1410.8 390.82 1403.05 386.715C1389.13 379.375 1374.83 369.316 1371.17 353.386C1370.58 350.812 1371.53 349.163 1374.03 348.438C1377.82 347.351 1382.71 348.384 1386.35 350.477C1398.61 357.491 1411.55 366.38 1424.88 369.126C1430.65 370.295 1435.54 368.474 1439.47 364.532C1447.14 356.784 1454.14 351.782 1465.93 355.017C1472.16 356.73 1499.65 367.658 1483.11 377.662C1475.28 382.42 1464.57 387.123 1459.73 395.197C1459.28 395.922 1459.12 396.71 1459.25 397.562C1460.48 405.935 1473.38 411.1 1480.28 412.459C1494.99 415.395 1508.21 420.28 1519.91 427.112C1521.34 427.946 1522.4 429.318 1522.85 430.935C1523.3 432.551 1523.11 434.283 1522.31 435.757C1519.54 440.949 1506.41 444.973 1500.91 446.468C1500.53 446.576 1500.17 446.772 1499.87 447.041C1499.57 447.31 1499.34 447.645 1499.19 448.02C1499.03 448.395 1498.97 448.8 1498.99 449.205C1499.02 449.61 1499.14 450.003 1499.33 450.355C1504.23 458.946 1511 466.911 1519.64 474.251C1530.74 483.675 1540.41 492.601 1548.64 501.029C1551.36 503.82 1552.82 507.009 1552.99 510.598C1553.05 511.576 1552.78 512.446 1552.19 513.208C1550.57 515.256 1548.4 516.823 1545.67 517.911C1524.93 526.202 1514.89 516.932 1503.02 500.485C1498.01 493.526 1492.81 486.675 1487.41 479.933Z" fill="white"/>
<path opacity="0.1" d="M1401.18 678.124C1414.8 650.967 1431.32 625.395 1446.82 599.097C1447.6 597.79 1448.55 597.651 1449.67 598.679C1460.94 608.987 1471.49 619.456 1481.3 630.087C1494.51 644.381 1505.19 660.856 1516.65 676.384C1518.9 679.453 1519.53 682.94 1518.55 686.846C1518.37 687.565 1517.91 687.933 1517.19 687.947C1463.29 688.916 1408.2 689.071 1353.33 690.37C1309.73 691.398 1266.21 691.941 1222.77 692C1222.65 692.002 1222.53 691.975 1222.42 691.921C1222.32 691.868 1222.22 691.79 1222.15 691.694C1222.08 691.597 1222.03 691.485 1222.01 691.366C1221.99 691.247 1222 691.125 1222.03 691.009C1225.97 677.089 1229.79 663.139 1233.51 649.161C1238.23 631.408 1245.06 615.11 1253.4 599.207C1253.62 598.784 1254 598.465 1254.45 598.317C1254.89 598.169 1255.38 598.204 1255.8 598.414C1262.61 601.733 1268.29 606.571 1272.86 612.929C1286.61 631.974 1298.35 652.34 1308.08 674.027C1309.01 676.098 1310.83 678.3 1312.21 680.15C1312.32 680.292 1312.46 680.402 1312.62 680.471C1312.78 680.54 1312.95 680.564 1313.13 680.542C1313.3 680.52 1313.46 680.451 1313.6 680.344C1313.74 680.237 1313.85 680.094 1313.92 679.93C1316.69 673.367 1319.31 666.619 1321.79 659.689C1329.12 639.139 1338.91 619.427 1348.62 599.868C1348.84 599.414 1349.18 599.026 1349.59 598.742C1350 598.458 1350.48 598.286 1350.98 598.245C1351.48 598.203 1351.98 598.291 1352.44 598.502C1352.89 598.713 1353.29 599.039 1353.59 599.45C1359.07 606.938 1364.21 614.508 1369.01 622.158C1380.31 640.24 1389.09 659.402 1398.76 678.146C1398.87 678.371 1399.05 678.56 1399.26 678.691C1399.48 678.821 1399.72 678.889 1399.97 678.887C1400.22 678.885 1400.47 678.812 1400.68 678.678C1400.89 678.543 1401.06 678.352 1401.18 678.124Z" fill="white"/>
<g opacity="0.1">
<path d="M1243.19 76.9983C1229.22 65.4812 1223.26 51.8458 1222.88 33.9007C1222.76 28.7874 1220.63 27.6754 1216.46 30.5648L1213.56 32.5858C1209.71 35.2317 1208.19 38.8759 1208.99 43.5185C1212.36 63.1924 1225.28 92.5085 1246.56 96.7696C1247.05 96.8713 1247.56 96.8645 1248.06 96.7495C1248.55 96.6345 1249.01 96.414 1249.42 96.1028C1249.82 95.7916 1250.15 95.3969 1250.39 94.945C1250.63 94.4931 1250.77 93.9945 1250.81 93.4825C1251.24 87.0544 1248 80.9428 1243.19 76.9983Z" fill="white"/>
<path d="M1341.73 65.1169C1343.93 60.1011 1343.98 55.2637 1341.88 50.605C1330.25 24.7221 1307.1 32.3676 1289.16 46.0274C1276.39 55.7182 1255.49 74.3695 1258.56 91.6086C1258.65 92.0756 1258.85 92.5132 1259.14 92.8803C1259.44 93.2473 1259.82 93.5318 1260.26 93.707C1260.7 93.8823 1261.17 93.9425 1261.64 93.8821C1262.11 93.8217 1262.55 93.6426 1262.94 93.3617C1272.54 86.2031 1279.8 85.8135 1291.08 87.2745C1308.64 89.4902 1334.27 82.2099 1341.73 65.1169Z" fill="white"/>
<path d="M1295.74 123.139C1308.86 128.009 1322.99 132.708 1338.13 137.237C1342.54 138.552 1346.4 138.82 1349.73 138.041C1356.53 136.434 1366.09 128.52 1361.33 120.339C1359.19 116.638 1356.39 113.757 1352.93 111.695C1327.64 96.6474 1296.34 89.8297 1267.93 98.3275C1266.88 98.6476 1265.97 99.3345 1265.37 100.266C1264.76 101.198 1264.51 102.314 1264.64 103.416C1265.72 112.109 1286.59 119.73 1295.74 123.139Z" fill="white"/>
<path d="M1229.72 161.733C1241.13 147.221 1249.17 125.015 1249.61 107.338C1249.72 102.452 1247.45 100.552 1242.81 101.64C1221.7 106.583 1201.55 121.265 1193.24 142.376C1190 150.679 1186.83 165.312 1196.29 170.401C1207.91 176.659 1221.87 171.765 1229.72 161.733Z" fill="white"/>
<path d="M1280.61 189.954C1284.05 198.086 1289.62 201.276 1297.3 199.523C1309.72 196.698 1313.66 180.433 1311.64 169.476C1308.45 152.115 1297.42 141.67 1284.38 130.64C1277.37 124.715 1270.29 119.252 1263.15 114.253C1259.76 111.891 1256.04 113.912 1255.18 117.686C1251.12 135.655 1253.33 155.597 1266.39 168.356C1272.17 174.005 1276.91 181.204 1280.61 189.954Z" fill="white"/>
<path d="M1355.59 205.489C1360.72 207.956 1364.69 208.605 1367.51 207.436C1375.98 203.955 1376.1 191.244 1373.53 183.964C1364.53 158.495 1331.26 140.599 1307.34 133.489C1304.77 132.726 1302.14 132.596 1299.47 133.099C1298.09 133.359 1297.49 134.179 1297.66 135.558C1297.86 137.019 1298.47 138.261 1299.51 139.284C1302.97 142.725 1306.58 146.012 1310.35 149.145C1319.26 156.572 1324.42 166.384 1328.98 177.439C1334.19 190.1 1343.06 199.45 1355.59 205.489Z" fill="white"/>
<path d="M1222.88 33.9007C1223.26 51.8458 1229.22 65.4812 1243.2 76.9983C1248 80.9428 1251.24 87.0544 1250.81 93.4825C1250.78 93.9945 1250.64 94.4931 1250.4 94.945C1250.16 95.3969 1249.82 95.7916 1249.42 96.1028C1249.02 96.414 1248.55 96.6345 1248.06 96.7495C1247.57 96.8645 1247.06 96.8713 1246.56 96.7696C1225.28 92.5085 1212.36 63.1924 1209 43.5185C1208.2 38.8759 1209.72 35.2317 1213.56 32.5858L1216.47 30.5648C1220.63 27.6754 1222.77 28.7874 1222.88 33.9007Z" fill="white"/>
<path d="M1341.73 65.1169C1334.27 82.2099 1308.64 89.4902 1291.08 87.2745C1279.8 85.8135 1272.54 86.2031 1262.94 93.3617C1262.55 93.6426 1262.11 93.8217 1261.64 93.8821C1261.17 93.9425 1260.7 93.8823 1260.26 93.707C1259.82 93.5318 1259.44 93.2473 1259.14 92.8803C1258.85 92.5132 1258.65 92.0756 1258.56 91.6086C1255.49 74.3695 1276.39 55.7182 1289.16 46.0274C1307.1 32.3676 1330.25 24.7221 1341.88 50.605C1343.98 55.2637 1343.93 60.1011 1341.73 65.1169Z" fill="white"/>
<path d="M1295.74 123.139C1286.59 119.73 1265.72 112.109 1264.64 103.416C1264.51 102.314 1264.76 101.198 1265.37 100.266C1265.97 99.3345 1266.88 98.6476 1267.93 98.3275C1296.34 89.8297 1327.64 96.6474 1352.93 111.695C1356.39 113.757 1359.19 116.638 1361.33 120.339C1366.09 128.52 1356.53 136.434 1349.73 138.041C1346.4 138.82 1342.54 138.552 1338.13 137.237C1322.99 132.708 1308.86 128.009 1295.74 123.139Z" fill="white"/>
<path d="M1249.61 107.338C1249.17 125.015 1241.13 147.221 1229.72 161.733C1221.87 171.765 1207.91 176.659 1196.29 170.401C1186.83 165.312 1190 150.679 1193.24 142.376C1201.55 121.265 1221.7 106.583 1242.81 101.64C1247.45 100.552 1249.72 102.452 1249.61 107.338Z" fill="white"/>
<path d="M1280.62 189.951C1276.92 181.202 1272.18 174.003 1266.4 168.354C1253.33 155.595 1251.12 135.653 1255.18 117.684C1256.05 113.909 1259.77 111.888 1263.16 114.25C1270.3 119.25 1277.37 124.712 1284.39 130.637C1297.43 141.667 1308.45 152.113 1311.65 169.474C1313.66 180.431 1309.72 196.696 1297.31 199.52C1289.62 201.273 1284.06 198.084 1280.62 189.951Z" fill="white"/>
<path d="M1355.59 205.489C1343.06 199.45 1334.19 190.1 1328.98 177.439C1324.42 166.384 1319.26 156.572 1310.35 149.145C1306.58 146.012 1302.97 142.725 1299.51 139.284C1298.47 138.261 1297.86 137.019 1297.66 135.558C1297.49 134.179 1298.09 133.359 1299.47 133.099C1302.14 132.596 1304.77 132.726 1307.34 133.489C1331.26 140.599 1364.53 158.495 1373.53 183.964C1376.1 191.244 1375.98 203.955 1367.51 207.436C1364.69 208.605 1360.72 207.956 1355.59 205.489Z" fill="white"/>
</g>
<g opacity="0.1">
<path d="M1041.19 684.998C1027.22 673.481 1021.26 659.846 1020.88 641.901C1020.76 636.787 1018.63 635.675 1014.46 638.565L1011.56 640.586C1007.71 643.232 1006.19 646.876 1006.99 651.518C1010.36 671.192 1023.28 700.509 1044.56 704.77C1045.05 704.871 1045.56 704.864 1046.06 704.749C1046.55 704.635 1047.01 704.414 1047.42 704.103C1047.82 703.792 1048.15 703.397 1048.39 702.945C1048.63 702.493 1048.77 701.994 1048.81 701.482C1049.24 695.054 1046 688.943 1041.19 684.998Z" fill="white"/>
<path d="M1139.73 673.117C1141.93 668.101 1141.98 663.264 1139.88 658.605C1128.25 632.722 1105.1 640.368 1087.16 654.027C1074.39 663.718 1053.49 682.37 1056.56 699.609C1056.65 700.076 1056.85 700.513 1057.14 700.88C1057.44 701.247 1057.82 701.532 1058.26 701.707C1058.7 701.882 1059.17 701.943 1059.64 701.882C1060.11 701.822 1060.55 701.643 1060.94 701.362C1070.54 694.203 1077.8 693.814 1089.08 695.274C1106.64 697.49 1132.27 690.21 1139.73 673.117Z" fill="white"/>
<path d="M1093.74 731.139C1106.86 736.009 1120.99 740.708 1136.13 745.237C1140.54 746.552 1144.4 746.82 1147.73 746.041C1154.53 744.434 1164.09 736.52 1159.33 728.339C1157.19 724.638 1154.39 721.757 1150.93 719.695C1125.64 704.647 1094.34 697.83 1065.93 706.328C1064.88 706.648 1063.97 707.334 1063.37 708.266C1062.76 709.198 1062.51 710.314 1062.64 711.416C1063.72 720.109 1084.59 727.73 1093.74 731.139Z" fill="white"/>
<path d="M1027.72 769.733C1039.13 755.221 1047.17 733.015 1047.61 715.338C1047.72 710.452 1045.45 708.552 1040.81 709.64C1019.7 714.583 999.549 729.265 991.239 750.376C987.997 758.679 984.827 773.312 994.289 778.401C1005.91 784.659 1019.87 779.765 1027.72 769.733Z" fill="white"/>
<path d="M1078.61 797.954C1082.05 806.086 1087.62 809.276 1095.3 807.523C1107.72 804.698 1111.66 788.433 1109.64 777.476C1106.45 760.115 1095.42 749.67 1082.38 738.64C1075.37 732.715 1068.29 727.252 1061.15 722.253C1057.76 719.891 1054.04 721.912 1053.18 725.686C1049.12 743.655 1051.33 763.597 1064.39 776.356C1070.17 782.005 1074.91 789.204 1078.61 797.954Z" fill="white"/>
<path d="M1153.59 813.489C1158.72 815.956 1162.69 816.605 1165.51 815.436C1173.98 811.955 1174.1 799.244 1171.53 791.964C1162.53 766.495 1129.26 748.599 1105.34 741.489C1102.77 740.726 1100.14 740.596 1097.47 741.099C1096.09 741.359 1095.49 742.179 1095.66 743.558C1095.86 745.019 1096.47 746.261 1097.51 747.284C1100.97 750.725 1104.58 754.012 1108.35 757.145C1117.26 764.572 1122.42 774.384 1126.98 785.439C1132.19 798.1 1141.06 807.45 1153.59 813.489Z" fill="white"/>
<path d="M1020.88 641.901C1021.26 659.846 1027.22 673.481 1041.2 684.998C1046 688.943 1049.24 695.054 1048.81 701.482C1048.78 701.994 1048.64 702.493 1048.4 702.945C1048.16 703.397 1047.82 703.792 1047.42 704.103C1047.02 704.414 1046.55 704.635 1046.06 704.749C1045.57 704.864 1045.06 704.871 1044.56 704.77C1023.28 700.509 1010.36 671.192 1007 651.518C1006.2 646.876 1007.72 643.232 1011.56 640.586L1014.47 638.565C1018.63 635.675 1020.77 636.787 1020.88 641.901Z" fill="white"/>
<path d="M1139.73 673.117C1132.27 690.21 1106.64 697.49 1089.08 695.274C1077.8 693.814 1070.54 694.203 1060.94 701.362C1060.55 701.643 1060.11 701.822 1059.64 701.882C1059.17 701.943 1058.7 701.882 1058.26 701.707C1057.82 701.532 1057.44 701.247 1057.14 700.88C1056.85 700.513 1056.65 700.076 1056.56 699.609C1053.49 682.37 1074.39 663.718 1087.16 654.027C1105.1 640.368 1128.25 632.722 1139.88 658.605C1141.98 663.264 1141.93 668.101 1139.73 673.117Z" fill="white"/>
<path d="M1093.74 731.139C1084.59 727.73 1063.72 720.109 1062.64 711.416C1062.51 710.314 1062.76 709.198 1063.37 708.266C1063.97 707.334 1064.88 706.648 1065.93 706.328C1094.34 697.83 1125.64 704.647 1150.93 719.695C1154.39 721.757 1157.19 724.638 1159.33 728.339C1164.09 736.52 1154.53 744.434 1147.73 746.041C1144.4 746.82 1140.54 746.552 1136.13 745.237C1120.99 740.708 1106.86 736.009 1093.74 731.139Z" fill="white"/>
<path d="M1047.61 715.338C1047.17 733.015 1039.13 755.221 1027.72 769.733C1019.87 779.765 1005.91 784.659 994.289 778.401C984.827 773.312 987.997 758.679 991.239 750.376C999.549 729.265 1019.7 714.583 1040.81 709.64C1045.45 708.552 1047.72 710.452 1047.61 715.338Z" fill="white"/>
<path d="M1078.62 797.951C1074.92 789.202 1070.18 782.003 1064.4 776.354C1051.33 763.595 1049.12 743.653 1053.18 725.684C1054.05 721.909 1057.77 719.888 1061.16 722.25C1068.3 727.25 1075.37 732.712 1082.39 738.637C1095.43 749.667 1106.45 760.113 1109.65 777.474C1111.66 788.431 1107.72 804.696 1095.31 807.52C1087.62 809.273 1082.06 806.084 1078.62 797.951Z" fill="white"/>
<path d="M1153.59 813.489C1141.06 807.45 1132.19 798.1 1126.98 785.439C1122.42 774.384 1117.26 764.572 1108.35 757.145C1104.58 754.012 1100.97 750.725 1097.51 747.284C1096.47 746.261 1095.86 745.019 1095.66 743.558C1095.49 742.179 1096.09 741.359 1097.47 741.099C1100.14 740.596 1102.77 740.726 1105.34 741.489C1129.26 748.599 1162.53 766.495 1171.53 791.964C1174.1 799.244 1173.98 811.955 1165.51 815.436C1162.69 816.605 1158.72 815.956 1153.59 813.489Z" fill="white"/>
</g>
<path opacity="0.1" d="M453.177 73.124C466.798 45.9668 483.316 20.3954 498.818 -5.90275C499.596 -7.20958 500.547 -7.34908 501.672 -6.32124C512.943 3.9866 523.486 14.456 533.302 25.0868C546.512 39.3812 557.192 55.8562 568.651 71.384C570.9 74.4528 571.534 77.9402 570.554 81.846C570.366 82.5655 569.912 82.9326 569.192 82.9473C515.292 83.9164 460.204 84.0706 405.332 85.37C361.731 86.3979 318.209 86.9412 274.767 86.9999C274.648 87.0015 274.531 86.9746 274.424 86.9215C274.317 86.8683 274.225 86.7903 274.153 86.6938C274.081 86.5973 274.033 86.4851 274.012 86.3661C273.991 86.247 273.998 86.1247 274.032 86.0088C277.966 72.0888 281.793 58.1395 285.512 44.1607C290.225 26.4083 297.057 10.1096 305.403 -5.79263C305.624 -6.21582 305.998 -6.535 306.445 -6.68291C306.893 -6.83082 307.38 -6.79591 307.802 -6.58554C314.606 -3.26707 320.292 1.57116 324.861 7.92913C338.611 26.9737 350.351 47.3397 360.08 69.0273C361.01 71.0977 362.826 73.3002 364.21 75.1503C364.315 75.2917 364.456 75.4023 364.617 75.4711C364.777 75.5398 364.953 75.5642 365.126 75.5419C365.299 75.5196 365.463 75.4513 365.602 75.3439C365.741 75.2365 365.85 75.0938 365.918 74.9301C368.685 68.3665 371.308 61.6194 373.788 54.6888C381.117 34.1392 390.911 14.4266 400.618 -5.13187C400.841 -5.58613 401.176 -5.97386 401.589 -6.25807C402.002 -6.54228 402.481 -6.71353 402.98 -6.75548C403.478 -6.79744 403.98 -6.7087 404.437 -6.49774C404.894 -6.28679 405.291 -5.96063 405.591 -5.55035C411.068 1.93825 416.207 9.5076 421.006 17.1577C432.314 35.2405 441.091 54.4025 450.756 73.146C450.872 73.3715 451.048 73.5599 451.262 73.6906C451.477 73.8213 451.723 73.8892 451.973 73.887C452.223 73.8847 452.468 73.8123 452.68 73.6777C452.893 73.5431 453.065 73.3515 453.177 73.124Z" fill="white"/>
<path opacity="0.1" d="M400.122 275.209C401.57 258.554 406.678 239.625 414.463 224.856C428.259 198.709 448.171 178.647 474.201 164.671C480.157 161.469 483.874 170.537 484.489 174.831C487.123 193.167 486.313 210.326 482.06 226.307C480.274 232.981 477.479 240.657 473.469 246.089C471.264 249.082 468.045 252.035 463.81 254.948C450.859 263.881 437.41 269.747 423.829 275.957C417.639 278.785 408.507 284.846 405.463 291.774C404.546 293.839 404.312 296.303 404.761 299.166C405.522 304.024 405.805 308.818 405.609 313.546C405.531 315.362 404.609 316.17 402.844 315.97L398.717 315.506C396.883 315.297 395.873 314.255 395.687 312.379C393.297 287.998 386.863 264.515 376.385 241.929C371.789 232.038 364.692 223.763 359.218 214.126C359.094 213.907 359.02 213.662 359.004 213.409C358.987 213.156 359.027 212.902 359.122 212.667C359.217 212.431 359.363 212.221 359.55 212.051C359.736 211.881 359.958 211.757 360.199 211.687C362.667 210.969 365.311 210.61 368.131 210.61C372.785 210.61 375.419 215.339 377.424 218.975C380.507 224.581 383.029 229.948 384.99 235.076C390.082 248.414 394.868 261.826 399.346 275.314C399.375 275.4 399.432 275.473 399.508 275.521C399.584 275.568 399.673 275.587 399.763 275.575C399.853 275.563 399.937 275.52 400.002 275.454C400.067 275.388 400.109 275.301 400.122 275.209Z" fill="white"/>
<g opacity="0.1">
<path d="M80.1934 197.998C66.2157 186.481 60.2595 172.846 59.8753 154.901C59.7632 149.787 57.6257 148.675 53.4628 151.565L50.5568 153.586C46.7141 156.232 45.193 159.876 45.9936 164.518C49.3559 184.192 62.2769 213.509 83.5558 217.77C84.0519 217.871 84.5637 217.864 85.057 217.749C85.5503 217.635 86.0136 217.414 86.4161 217.103C86.8185 216.792 87.1508 216.397 87.3906 215.945C87.6304 215.493 87.7723 214.994 87.8067 214.482C88.239 208.054 84.9968 201.943 80.1934 197.998Z" fill="white"/>
<path d="M178.735 186.117C180.928 181.101 180.976 176.264 178.879 171.605C167.255 145.722 144.103 153.368 126.162 167.027C113.385 176.718 92.4907 195.37 95.5649 212.609C95.6473 213.076 95.8462 213.513 96.1429 213.88C96.4397 214.247 96.8246 214.532 97.2615 214.707C97.6984 214.882 98.173 214.943 98.6408 214.882C99.1085 214.822 99.5542 214.643 99.9359 214.362C109.543 207.203 116.796 206.814 128.084 208.274C145.64 210.49 171.266 203.21 178.735 186.117Z" fill="white"/>
<path d="M132.744 244.139C145.857 249.009 159.987 253.708 175.133 258.237C179.536 259.552 183.403 259.82 186.733 259.041C193.53 257.434 203.089 249.52 198.334 241.339C196.188 237.638 193.386 234.757 189.928 232.695C164.638 217.647 133.344 210.83 104.932 219.328C103.877 219.648 102.968 220.334 102.365 221.266C101.763 222.198 101.507 223.314 101.642 224.416C102.723 233.109 123.593 240.73 132.744 244.139Z" fill="white"/>
<path d="M66.7208 282.733C78.1288 268.221 86.1744 246.015 86.6067 228.338C86.7187 223.452 84.4532 221.552 79.8099 222.64C58.6992 227.583 38.5492 242.265 30.2394 263.376C26.9971 271.679 23.8269 286.312 33.2895 291.401C44.9136 297.659 58.8673 292.765 66.7208 282.733Z" fill="white"/>
<path d="M117.611 310.954C121.054 319.086 126.617 322.276 134.303 320.523C146.719 317.698 150.658 301.433 148.641 290.476C145.447 273.115 134.423 262.67 121.382 251.64C114.369 245.715 107.292 240.252 100.151 235.253C96.7646 232.891 93.042 234.912 92.1774 238.686C88.1186 256.655 90.3281 276.597 103.393 289.356C109.173 295.005 113.913 302.204 117.611 310.954Z" fill="white"/>
<path d="M192.593 326.489C197.716 328.956 201.687 329.605 204.505 328.436C212.983 324.955 213.103 312.244 210.533 304.964C201.527 279.495 168.264 261.599 144.343 254.489C141.765 253.726 139.139 253.596 136.466 254.099C135.089 254.359 134.488 255.179 134.664 256.558C134.857 258.019 135.473 259.261 136.514 260.284C139.972 263.725 143.583 267.012 147.345 270.145C156.255 277.572 161.419 287.384 165.982 298.439C171.186 311.1 180.056 320.45 192.593 326.489Z" fill="white"/>
<path d="M59.8799 154.901C60.2642 172.846 66.2204 186.481 80.1981 197.998C85.0015 201.943 88.2437 208.054 87.8114 214.482C87.777 214.994 87.6351 215.493 87.3953 215.945C87.1555 216.397 86.8232 216.792 86.4208 217.103C86.0183 217.414 85.555 217.635 85.0617 217.749C84.5684 217.864 84.0566 217.871 83.5604 217.77C62.2816 213.509 49.3606 184.192 45.9983 164.518C45.1977 159.876 46.7188 156.232 50.5614 153.586L53.4675 151.565C57.6304 148.675 59.7679 149.787 59.8799 154.901Z" fill="white"/>
<path d="M178.735 186.117C171.266 203.21 145.64 210.49 128.084 208.274C116.796 206.814 109.543 207.203 99.9359 214.362C99.5542 214.643 99.1085 214.822 98.6408 214.882C98.173 214.943 97.6984 214.882 97.2615 214.707C96.8246 214.532 96.4397 214.247 96.1429 213.88C95.8462 213.513 95.6473 213.076 95.5649 212.609C92.4907 195.37 113.385 176.718 126.162 167.027C144.103 153.368 167.255 145.722 178.879 171.605C180.976 176.264 180.928 181.101 178.735 186.117Z" fill="white"/>
<path d="M132.744 244.139C123.593 240.73 102.723 233.109 101.642 224.416C101.507 223.314 101.763 222.198 102.365 221.266C102.968 220.334 103.877 219.648 104.932 219.328C133.344 210.83 164.638 217.647 189.928 232.695C193.386 234.757 196.188 237.638 198.334 241.339C203.089 249.52 193.53 257.434 186.733 259.041C183.403 259.82 179.536 259.552 175.133 258.237C159.987 253.708 145.857 249.009 132.744 244.139Z" fill="white"/>
<path d="M86.6067 228.338C86.1744 246.015 78.1288 268.221 66.7208 282.733C58.8673 292.765 44.9136 297.659 33.2895 291.401C23.8269 286.312 26.9971 271.679 30.2394 263.376C38.5492 242.265 58.6992 227.583 79.8099 222.64C84.4532 221.552 86.7187 223.452 86.6067 228.338Z" fill="white"/>
<path d="M117.616 310.951C113.917 302.202 109.178 295.003 103.398 289.354C90.3328 276.595 88.1233 256.653 92.1821 238.684C93.0467 234.909 96.7693 232.888 100.156 235.25C107.297 240.25 114.374 245.712 121.386 251.637C134.428 262.667 145.451 273.113 148.645 290.474C150.663 301.431 146.724 317.696 134.307 320.52C126.622 322.273 121.058 319.084 117.616 310.951Z" fill="white"/>
<path d="M192.593 326.489C180.056 320.45 171.186 311.1 165.982 298.439C161.419 287.384 156.255 277.572 147.345 270.145C143.583 267.012 139.972 263.725 136.514 260.284C135.473 259.261 134.857 258.019 134.664 256.558C134.488 255.179 135.089 254.359 136.466 254.099C139.139 253.596 141.765 253.726 144.343 254.489C168.264 261.599 201.527 279.495 210.533 304.964C213.103 312.244 212.983 324.955 204.505 328.436C201.687 329.605 197.716 328.956 192.593 326.489Z" fill="white"/>
</g>
<defs>
<clipPath id="clip0_0_1">
<rect width="1440" height="1024" fill="white"/>
</clipPath>
</defs>
</svg>
