<svg width="1440" height="1024" viewBox="0 0 1440 1024" fill="none" xmlns="http://www.w3.org/2000/svg">
<rect width="1440" height="1024" fill="#F5F5F5"/>
<rect width="1440" height="1024" fill="#346830"/>
<g opacity="0.2">
<path d="M403.08 730.824C414.858 693.305 442.847 661.581 474.518 642.278C475.442 641.718 476.039 642.004 476.311 643.138C481.21 663.899 482.945 685.216 481.516 707.089C479.794 733.611 471.623 758.221 457.003 780.92C441.046 805.687 420.374 826.011 394.987 841.894C394.88 841.962 394.76 841.998 394.637 842C394.515 842.002 394.394 841.969 394.285 841.904C394.177 841.84 394.085 841.745 394.018 841.63C393.951 841.515 393.911 841.383 393.901 841.246C391.749 814.283 392.449 788.107 395.999 762.718C397.502 751.969 399.811 741.217 403.08 730.824Z" fill="white"/>
<path d="M335.731 785.206C325.897 761.612 326.002 732.367 332.904 707.025C333.106 706.287 333.503 706.113 334.093 706.502C344.866 713.673 354.389 722.734 362.662 733.686C372.698 746.96 378.94 762.666 381.39 780.804C384.061 800.597 382.713 820.746 377.348 841.251C377.326 841.338 377.285 841.417 377.228 841.481C377.172 841.545 377.102 841.592 377.025 841.618C376.948 841.643 376.866 841.647 376.788 841.628C376.709 841.609 376.637 841.568 376.576 841.508C364.551 830.025 354.179 817.44 345.46 803.752C341.768 797.957 338.452 791.746 335.731 785.206Z" fill="white"/>
</g>
<path opacity="0.2" d="M96.6604 410.991C96.4619 405.25 96.3329 399.471 96.2734 393.652C96.1742 384.597 97.504 375.414 100.263 366.101C101.498 361.889 102.332 357.777 105.8 355.081C107.348 353.879 108.901 352.621 110.46 351.306C110.612 351.18 110.786 351.089 110.971 351.041C111.156 350.992 111.347 350.987 111.533 351.025C111.72 351.063 111.898 351.143 112.056 351.261C112.214 351.379 112.35 351.532 112.454 351.711C113.367 353.25 113.968 354.873 114.255 356.581C116.121 367.522 116.731 380.609 116.086 395.842C115.66 406.076 113.968 416.433 111.01 426.914C110.474 428.802 110.703 430.554 111.695 432.172C114.176 436.238 116.826 440.31 119.644 444.388C131.473 461.497 141.784 477.044 150.577 491.03C151.003 491.693 151.107 492.418 150.889 493.204L150.77 493.625C150.742 493.717 150.693 493.799 150.628 493.863C150.563 493.927 150.485 493.971 150.4 493.99C150.316 494.008 150.229 494.002 150.147 493.97C150.066 493.939 149.993 493.884 149.936 493.811L106.5 437.109C106.054 436.527 105.484 436.083 104.843 435.821C104.202 435.558 103.512 435.485 102.838 435.609C84.9602 438.962 68.7794 439.771 50.9314 433.739C37.9213 429.358 29.0643 421.152 20.1626 410.317C20.0907 410.234 20.04 410.131 20.0159 410.018C19.9918 409.905 19.9952 409.787 20.0258 409.676C20.0563 409.566 20.1129 409.466 20.1894 409.389C20.266 409.312 20.3596 409.26 20.4603 409.238C26.4543 407.767 32.106 406.553 37.4152 405.599C49.8448 403.357 64.0309 409.474 75.1357 415.119C76.0983 415.613 76.6887 415.265 76.9071 414.074C76.9368 413.94 76.7433 413.558 76.3265 412.929C74.4013 410.008 72.4661 407.104 70.5211 404.217C61.1728 390.383 56.4987 371.544 55.3674 354.373C55.3079 353.418 55.685 353.081 56.4987 353.362C67.2065 357.137 74.9918 363.422 79.8544 372.218C83.9034 379.514 87.2526 386.911 89.6493 395.118C91.2768 400.689 92.9191 406.132 94.5764 411.446C96.1642 416.557 96.8589 416.405 96.6604 410.991Z" fill="white"/>
<path opacity="0.2" d="M594.66 880.991C594.462 875.25 594.333 869.471 594.273 863.652C594.174 854.597 595.504 845.414 598.263 836.101C599.498 831.889 600.332 827.777 603.8 825.081C605.348 823.879 606.901 822.621 608.46 821.306C608.612 821.18 608.786 821.089 608.971 821.041C609.156 820.992 609.347 820.987 609.533 821.025C609.72 821.063 609.898 821.143 610.056 821.261C610.214 821.379 610.35 821.532 610.454 821.711C611.367 823.25 611.968 824.873 612.255 826.581C614.121 837.522 614.731 850.609 614.086 865.842C613.66 876.076 611.968 886.433 609.01 896.914C608.474 898.802 608.703 900.554 609.695 902.172C612.176 906.238 614.826 910.31 617.644 914.388C629.473 931.497 639.784 947.044 648.577 961.03C649.003 961.693 649.107 962.418 648.889 963.204L648.77 963.625C648.742 963.717 648.693 963.799 648.628 963.863C648.563 963.927 648.485 963.971 648.4 963.99C648.316 964.008 648.229 964.002 648.147 963.97C648.066 963.939 647.993 963.884 647.936 963.811L604.5 907.109C604.054 906.527 603.484 906.083 602.843 905.821C602.202 905.558 601.512 905.485 600.838 905.609C582.96 908.962 566.779 909.771 548.931 903.739C535.921 899.358 527.064 891.152 518.163 880.317C518.091 880.234 518.04 880.131 518.016 880.018C517.992 879.905 517.995 879.787 518.026 879.676C518.056 879.566 518.113 879.466 518.189 879.389C518.266 879.312 518.36 879.26 518.46 879.238C524.454 877.767 530.106 876.553 535.415 875.599C547.845 873.357 562.031 879.474 573.136 885.119C574.098 885.613 574.689 885.265 574.907 884.074C574.937 883.94 574.743 883.558 574.327 882.929C572.401 880.008 570.466 877.104 568.521 874.217C559.173 860.383 554.499 841.544 553.367 824.373C553.308 823.418 553.685 823.081 554.499 823.362C565.207 827.137 572.992 833.422 577.854 842.218C581.903 849.514 585.253 856.911 587.649 865.118C589.277 870.689 590.919 876.132 592.576 881.446C594.164 886.557 594.859 886.405 594.66 880.991Z" fill="white"/>
<path opacity="0.2" d="M257.291 592.485C255.896 590.069 254.073 588.195 251.822 586.864C245.106 582.879 238.99 578.149 233.474 572.673C228.707 567.939 226.311 562.913 226.276 555.613C226.217 544.742 226.066 533.871 228.566 523.251C228.606 523.086 228.68 522.934 228.783 522.809C228.886 522.683 229.014 522.588 229.156 522.531C229.299 522.474 229.451 522.456 229.601 522.48C229.751 522.505 229.893 522.57 230.015 522.67C235.578 527.232 239.586 534.07 243.641 540.127C246.968 545.108 250.828 549.591 255.222 553.577C255.394 553.734 255.599 553.838 255.817 553.88C256.036 553.921 256.259 553.898 256.467 553.813C256.675 553.728 256.86 553.584 257.005 553.394C257.149 553.204 257.247 552.976 257.291 552.73C257.602 550.949 257.104 549.38 255.795 548.022C249.968 541.974 244.522 535.344 239.458 528.132C236.899 524.468 233.475 519.998 235.648 515.105C237.214 511.578 238.912 508.197 240.743 504.961C243.186 500.637 245.99 496.868 247.615 491.921C250.221 483.947 253.364 476.184 258.343 470.047C258.46 469.902 258.612 469.8 258.778 469.753C258.945 469.706 259.119 469.716 259.277 469.783C260.602 470.329 261.568 471.427 262.176 473.076C263.773 477.44 265.358 481.738 266.932 485.97C268.322 489.752 270.379 493.059 272.483 496.391C272.567 496.525 272.683 496.629 272.818 496.69C272.953 496.751 273.1 496.768 273.243 496.737C273.385 496.706 273.517 496.63 273.623 496.517C273.728 496.405 273.803 496.26 273.838 496.1C274.376 493.654 274.294 491.075 273.71 488.668C272.323 482.955 271.065 477.559 269.935 472.481C269 468.262 272.109 463.62 274.353 460.552C281.286 451.091 288.181 441.847 295.037 432.819C295.318 432.45 295.693 432.189 296.111 432.071C296.529 431.953 296.97 431.983 297.374 432.157C298.605 432.686 299.684 433.44 300.611 434.419C307.748 441.966 315.25 449.129 323.119 455.91C325.129 457.646 326.395 459.802 326.917 462.377C327.781 466.609 328.833 470.986 325.409 474.319C317.829 481.725 310.833 489.32 304.421 497.106C300.541 501.8 301.523 506.588 303.428 512.182C304.144 514.272 305.531 515.136 307.588 514.774C311.935 513.994 316.201 512.5 320.127 510.251C325.047 507.448 325.97 503.017 327.992 497.423C331.416 487.914 334.828 478.247 334.735 468.103C334.711 466.005 335.292 465.767 336.476 467.389C338.47 470.122 340.535 472.868 342.67 475.628C345.856 479.754 348.462 484.815 350.488 490.81C352.626 497.132 352.1 504.022 352.731 510.661C353.69 520.818 352.007 531.716 348.922 541.304C347.66 545.192 346.771 548.961 346.257 552.611C345.026 561.331 343.456 569.169 341.548 576.125C339.024 585.317 327.291 587.393 320.396 589.826C313.77 592.154 306.782 592.313 300.039 592.762C297.46 592.939 296.661 594.367 297.643 597.047C297.76 597.373 297.892 597.691 298.04 597.999C298.921 599.86 300.292 600.874 302.154 601.041C306.68 601.429 311.012 600.883 315.149 599.401C321.771 597.03 328.853 594.676 336.394 592.339C336.515 592.3 336.642 592.302 336.762 592.345C336.882 592.387 336.988 592.468 337.067 592.577C337.146 592.687 337.196 592.82 337.209 592.961C337.223 593.102 337.199 593.245 337.142 593.371C336.371 595.072 335.342 596.562 334.057 597.841C329.523 602.373 325.359 607.222 321.564 612.388C319.383 615.368 316.356 617.264 312.484 618.075C302.084 620.244 294.429 616.528 285.174 612.269C285.1 612.233 285.019 612.22 284.939 612.232C284.859 612.243 284.783 612.278 284.719 612.333C284.655 612.388 284.605 612.461 284.574 612.545C284.543 612.629 284.532 612.721 284.543 612.812C285.532 621.743 287.383 630.035 290.094 637.688C290.639 639.24 290.179 640.09 288.715 640.24L281.738 640.981C280.383 641.122 279.44 640.483 278.91 639.063C276.409 632.257 274.82 625.243 274.142 618.022C274.002 616.523 273.511 616.356 272.67 617.52C270.769 620.138 268.268 622.431 265.167 624.397C261.693 626.601 258.226 626.389 254.767 623.762C248.9 619.292 242.936 614.853 236.875 610.444C234.483 608.707 232.629 606.261 231.313 603.104C228.368 596.086 225.968 588.83 224.114 581.336C223.81 580.11 224.114 579.872 225.025 580.622C229.536 584.307 234.768 587.538 240.72 590.316C246.321 592.925 251.72 593.939 256.917 593.357C257.462 593.296 257.587 593.005 257.291 592.485ZM295.224 474.623C293.97 478.405 293.615 482.227 294.161 486.089C294.18 486.233 294.243 486.365 294.339 486.461C294.435 486.558 294.558 486.614 294.686 486.618C295.208 486.645 295.684 486.468 296.112 486.089C301.908 480.958 310.591 474.213 311.514 465.339C311.566 464.864 311.513 464.382 311.36 463.936C311.208 463.489 310.96 463.092 310.64 462.778C310.319 462.465 309.935 462.245 309.521 462.138C309.107 462.031 308.676 462.04 308.266 462.165C301.675 464.166 297.327 468.319 295.224 474.623ZM249.321 511.27C249.578 520.091 256.134 532.02 264.162 533.858C264.286 533.886 264.415 533.884 264.538 533.852C264.662 533.819 264.778 533.757 264.88 533.67C264.981 533.583 265.066 533.472 265.127 533.345C265.189 533.217 265.226 533.077 265.237 532.932C265.284 532.315 265.101 531.799 264.688 531.385C262.312 528.996 260.22 526.597 258.413 524.19C255.328 520.091 253.458 514.999 250.361 510.82C249.629 509.815 249.282 509.965 249.321 511.27ZM304.549 553.854C302.095 555.283 300.155 555.891 298.508 558.655C298.379 558.871 298.297 559.119 298.269 559.377C298.241 559.636 298.267 559.899 298.346 560.144C298.424 560.389 298.553 560.609 298.721 560.787C298.89 560.965 299.093 561.095 299.314 561.168C299.844 561.344 300.401 561.379 300.985 561.274C306.649 560.242 311.877 558.95 316.668 557.399C317.035 557.281 317.357 557.029 317.583 556.682C317.81 556.335 317.928 555.912 317.918 555.481C317.731 548.115 308.16 551.765 304.549 553.854ZM311.182 575.258C311.226 574.945 311.116 574.606 310.859 574.262C310.601 573.918 310.201 573.575 309.68 573.253C309.16 572.931 308.53 572.636 307.826 572.386C307.122 572.135 306.358 571.933 305.577 571.791C304.797 571.65 304.015 571.572 303.277 571.561C302.539 571.55 301.859 571.608 301.276 571.73C300.693 571.852 300.218 572.036 299.878 572.271C299.538 572.507 299.341 572.79 299.296 573.104C299.252 573.418 299.362 573.756 299.619 574.1C299.877 574.445 300.277 574.787 300.798 575.109C301.318 575.431 301.948 575.726 302.652 575.977C303.356 576.228 304.12 576.429 304.901 576.571C305.681 576.712 306.463 576.791 307.201 576.801C307.939 576.812 308.619 576.755 309.202 576.633C309.785 576.511 310.26 576.327 310.6 576.091C310.939 575.855 311.137 575.572 311.182 575.258ZM264.577 604.75C264.471 604.386 264.214 604.081 263.82 603.854C263.427 603.628 262.904 603.483 262.283 603.428C261.662 603.374 260.954 603.411 260.199 603.537C259.445 603.663 258.659 603.876 257.886 604.163C256.326 604.744 254.914 605.593 253.962 606.524C253.01 607.456 252.595 608.392 252.809 609.129C252.915 609.493 253.172 609.798 253.566 610.025C253.959 610.252 254.482 610.396 255.103 610.451C255.724 610.505 256.432 610.469 257.187 610.343C257.941 610.216 258.727 610.004 259.5 609.716C261.06 609.135 262.472 608.286 263.424 607.355C264.376 606.424 264.791 605.487 264.577 604.75Z" fill="white"/>
<g opacity="0.2">
<path d="M82.1172 957.466C82.8825 949.716 82.2958 943.122 80.357 937.685C79.4386 935.14 77.7549 933.767 75.3059 933.564C74.0559 933.449 72.9207 932.986 71.9003 932.176L68.9537 929.834C53.1372 912.974 49.0811 893.786 56.7853 872.27C61.3261 859.632 67.7166 848.484 75.9565 838.824C76.3374 838.383 76.8019 838.045 77.3149 837.836C77.8279 837.628 78.376 837.554 78.9178 837.621C79.4596 837.688 79.9809 837.894 80.4424 838.222C80.9038 838.551 81.2933 838.994 81.5815 839.519C84.3112 844.406 87.3468 848.729 90.6887 852.489C92.2959 854.282 92.7679 853.964 92.1046 851.535C90.472 845.404 88.0866 839.331 84.9488 833.315C84.7207 832.86 84.6344 832.332 84.7039 831.82C84.7735 831.307 84.9949 830.84 85.3315 830.496L131.748 782.562C133.865 780.393 135.37 780.841 136.263 783.907L137.258 787.42C137.692 788.866 138.572 789.43 139.899 789.112C140.664 788.91 141.2 788.418 141.506 787.637C141.812 786.799 141.914 785.931 141.812 785.035C141.531 782.461 141.289 779.901 141.085 777.356C141.039 776.625 141.159 775.891 141.434 775.224C141.708 774.556 142.128 773.977 142.654 773.539C166.812 753.787 193.203 743.275 221.826 742.003C223.535 741.945 224.236 742.87 223.93 744.779C220.946 763.374 216.647 781.579 211.035 799.393C210.473 801.157 209.377 802.198 207.744 802.516C205.371 802.95 202.884 802.733 200.282 801.866C198.445 801.258 196.838 801.605 195.46 802.907C195.154 803.196 194.976 803.572 194.925 804.035C194.746 805.162 195.103 805.987 195.996 806.507C198.904 808.213 201.953 809.341 205.142 809.891C205.544 809.965 205.925 810.15 206.249 810.43C206.574 810.711 206.831 811.076 206.999 811.494C207.166 811.912 207.238 812.37 207.207 812.824C207.177 813.279 207.046 813.717 206.825 814.098L175.677 868.105C174.555 870.043 172.999 870.766 171.009 870.274C166.953 869.291 162.807 868.539 158.572 868.019C153.241 867.382 152.679 868.944 156.889 872.703C159.746 875.277 162.973 877.504 166.57 879.384C167.048 879.628 167.479 879.976 167.838 880.409C168.198 880.842 168.478 881.352 168.662 881.908C168.847 882.464 168.934 883.057 168.916 883.651C168.898 884.245 168.777 884.829 168.56 885.37C162.667 900.003 155.868 913.465 148.164 925.756C145.332 930.267 141.888 930.976 137.832 927.882C132.296 923.602 126.301 920.724 119.847 919.249C117.143 918.613 116.812 919.35 118.852 921.461L135.957 939.073C136.396 939.529 136.659 940.164 136.688 940.838C136.716 941.512 136.509 942.172 136.11 942.674C128.253 952.477 119.031 959.259 108.444 963.019C101.862 965.361 93.0867 963.51 82.1172 957.466ZM158.802 816.571C160.817 816.311 162.093 815.111 162.628 812.971C162.695 812.708 162.7 812.43 162.643 812.165C162.585 811.899 162.468 811.656 162.301 811.458C162.134 811.26 161.925 811.116 161.694 811.039C161.462 810.962 161.217 810.955 160.983 811.019C154.44 812.884 147.322 825.03 142.501 830.366C138.495 834.761 134.873 839.374 131.633 844.203C125.256 853.66 119.082 862.871 113.113 871.836C106.913 881.076 99.5281 888.624 94.4388 898.644C92.551 902.317 89.9234 904.428 86.556 904.977C85.6632 905.122 85.1657 905.715 85.0636 906.756C84.4769 912.887 81.8876 918.309 77.2957 923.023C76.5814 923.746 76.3391 924.628 76.5687 925.669C76.8493 926.913 77.9334 926.927 79.8212 925.713C80.2738 925.428 80.655 925.026 80.931 924.541C86.2116 915.143 91.9898 906.25 98.2654 897.863C104.592 889.448 110.714 880.83 116.633 872.009C122.245 863.652 127.998 855.092 133.891 846.329C140.549 836.439 148.585 828.761 154.937 819.087C155.906 817.612 157.195 816.773 158.802 816.571ZM182.72 821.466C182.769 821.293 182.62 821.049 182.281 820.75C181.941 820.45 181.418 820.1 180.742 819.72C180.066 819.34 179.249 818.937 178.339 818.535C177.429 818.132 176.443 817.738 175.437 817.374C174.432 817.01 173.427 816.684 172.479 816.415C171.531 816.145 170.66 815.937 169.915 815.803C169.169 815.668 168.564 815.61 168.134 815.632C167.705 815.653 167.458 815.753 167.409 815.927C167.36 816.1 167.51 816.344 167.849 816.644C168.189 816.943 168.711 817.293 169.388 817.673C170.064 818.053 170.881 818.456 171.791 818.859C172.701 819.261 173.687 819.655 174.693 820.019C175.698 820.383 176.703 820.709 177.651 820.979C178.598 821.248 179.47 821.456 180.215 821.59C180.96 821.725 181.565 821.783 181.995 821.762C182.425 821.74 182.672 821.64 182.72 821.466Z" fill="white"/>
<path d="M154.937 819.087C148.585 828.761 140.549 836.439 133.891 846.329C127.998 855.092 122.245 863.652 116.633 872.009C110.714 880.83 104.592 889.448 98.2654 897.863C91.9898 906.25 86.2116 915.143 80.931 924.541C80.655 925.026 80.2738 925.428 79.8212 925.713C77.9334 926.927 76.8493 926.913 76.5687 925.669C76.3391 924.628 76.5814 923.746 77.2957 923.023C81.8876 918.309 84.4769 912.887 85.0636 906.756C85.1657 905.715 85.6632 905.122 86.556 904.977C89.9234 904.428 92.551 902.317 94.4388 898.644C99.5281 888.624 106.913 881.076 113.113 871.836C119.082 862.871 125.256 853.66 131.633 844.203C134.873 839.374 138.495 834.761 142.501 830.366C147.322 825.03 154.44 812.884 160.983 811.019C161.217 810.955 161.462 810.962 161.694 811.039C161.925 811.116 162.134 811.26 162.301 811.458C162.468 811.656 162.585 811.899 162.643 812.165C162.7 812.43 162.695 812.708 162.628 812.971C162.093 815.111 160.817 816.311 158.802 816.571C157.195 816.773 155.906 817.612 154.937 819.087Z" fill="#346830"/>
<path d="M174.693 820.019C178.921 821.549 182.515 822.197 182.72 821.466C182.926 820.736 179.665 818.904 175.437 817.374C171.209 815.844 167.615 815.197 167.409 815.927C167.204 816.657 170.465 818.49 174.693 820.019Z" fill="#346830"/>
</g>
<g clip-path="url(#clip0_0_1)">
<rect width="1440" height="1024" fill="#346830"/>
<g opacity="0.1">
<path d="M403.08 730.824C414.858 693.305 442.847 661.581 474.518 642.278C475.442 641.718 476.039 642.004 476.311 643.138C481.21 663.899 482.945 685.216 481.516 707.089C479.794 733.611 471.623 758.221 457.003 780.92C441.046 805.687 420.374 826.011 394.987 841.894C394.88 841.962 394.76 841.998 394.637 842C394.515 842.002 394.394 841.969 394.285 841.904C394.177 841.84 394.085 841.745 394.018 841.63C393.951 841.515 393.911 841.383 393.901 841.246C391.749 814.283 392.449 788.107 395.999 762.718C397.502 751.969 399.811 741.217 403.08 730.824Z" fill="white"/>
<path d="M335.731 785.206C325.897 761.612 326.002 732.367 332.904 707.025C333.106 706.287 333.503 706.113 334.093 706.502C344.866 713.673 354.389 722.734 362.662 733.686C372.698 746.96 378.94 762.666 381.39 780.804C384.061 800.597 382.713 820.746 377.348 841.252C377.326 841.338 377.285 841.417 377.228 841.481C377.172 841.545 377.102 841.592 377.025 841.618C376.948 841.643 376.866 841.647 376.788 841.628C376.709 841.609 376.637 841.568 376.576 841.508C364.551 830.025 354.179 817.44 345.46 803.752C341.768 797.957 338.452 791.746 335.731 785.206Z" fill="white"/>
</g>
<path opacity="0.1" d="M96.6604 410.991C96.4619 405.25 96.3329 399.471 96.2734 393.652C96.1742 384.597 97.504 375.414 100.263 366.101C101.498 361.889 102.332 357.777 105.8 355.081C107.348 353.879 108.901 352.621 110.46 351.306C110.612 351.18 110.786 351.089 110.971 351.041C111.156 350.992 111.347 350.987 111.533 351.025C111.72 351.063 111.898 351.143 112.056 351.261C112.214 351.379 112.35 351.532 112.454 351.711C113.367 353.25 113.968 354.873 114.255 356.581C116.121 367.522 116.731 380.609 116.086 395.842C115.66 406.076 113.968 416.433 111.01 426.914C110.474 428.802 110.703 430.554 111.695 432.172C114.176 436.238 116.826 440.31 119.644 444.388C131.473 461.497 141.784 477.044 150.577 491.03C151.003 491.693 151.107 492.418 150.889 493.204L150.77 493.625C150.742 493.717 150.693 493.799 150.628 493.863C150.563 493.927 150.485 493.971 150.4 493.99C150.316 494.008 150.229 494.002 150.147 493.97C150.066 493.939 149.993 493.884 149.936 493.811L106.5 437.109C106.054 436.527 105.484 436.083 104.843 435.821C104.202 435.558 103.512 435.485 102.838 435.609C84.9602 438.962 68.7794 439.771 50.9314 433.739C37.9213 429.358 29.0643 421.152 20.1626 410.317C20.0907 410.234 20.04 410.131 20.0159 410.018C19.9918 409.905 19.9952 409.787 20.0258 409.676C20.0563 409.566 20.1129 409.466 20.1894 409.389C20.266 409.312 20.3596 409.26 20.4603 409.238C26.4543 407.767 32.106 406.553 37.4152 405.599C49.8448 403.357 64.0309 409.474 75.1357 415.119C76.0983 415.613 76.6887 415.265 76.9071 414.074C76.9368 413.94 76.7433 413.558 76.3265 412.929C74.4013 410.008 72.4661 407.104 70.5211 404.217C61.1728 390.383 56.4987 371.544 55.3674 354.373C55.3079 353.418 55.685 353.081 56.4987 353.362C67.2065 357.137 74.9918 363.422 79.8544 372.218C83.9034 379.514 87.2526 386.911 89.6493 395.118C91.2768 400.689 92.9191 406.132 94.5764 411.446C96.1642 416.557 96.8589 416.405 96.6604 410.991Z" fill="white"/>
<path opacity="0.1" d="M594.66 880.991C594.462 875.25 594.333 869.471 594.273 863.652C594.174 854.597 595.504 845.414 598.263 836.101C599.498 831.889 600.332 827.777 603.8 825.081C605.348 823.879 606.901 822.621 608.46 821.306C608.612 821.18 608.786 821.089 608.971 821.041C609.156 820.992 609.347 820.987 609.533 821.025C609.72 821.063 609.898 821.143 610.056 821.261C610.214 821.379 610.35 821.532 610.454 821.711C611.367 823.25 611.968 824.873 612.255 826.581C614.121 837.522 614.731 850.609 614.086 865.842C613.66 876.076 611.968 886.433 609.01 896.914C608.474 898.802 608.703 900.554 609.695 902.172C612.176 906.238 614.826 910.31 617.644 914.388C629.473 931.497 639.784 947.044 648.577 961.03C649.003 961.693 649.107 962.418 648.889 963.204L648.77 963.625C648.742 963.717 648.693 963.799 648.628 963.863C648.563 963.927 648.485 963.971 648.4 963.99C648.316 964.008 648.229 964.002 648.147 963.97C648.066 963.939 647.993 963.884 647.936 963.811L604.5 907.109C604.054 906.527 603.484 906.083 602.843 905.821C602.202 905.558 601.512 905.485 600.838 905.609C582.96 908.962 566.779 909.771 548.931 903.739C535.921 899.358 527.064 891.152 518.163 880.317C518.091 880.234 518.04 880.131 518.016 880.018C517.992 879.905 517.995 879.787 518.026 879.676C518.056 879.566 518.113 879.466 518.189 879.389C518.266 879.312 518.36 879.26 518.46 879.238C524.454 877.767 530.106 876.553 535.415 875.599C547.845 873.357 562.031 879.474 573.136 885.119C574.098 885.613 574.689 885.265 574.907 884.074C574.937 883.94 574.743 883.558 574.327 882.929C572.401 880.008 570.466 877.104 568.521 874.217C559.173 860.383 554.499 841.544 553.367 824.373C553.308 823.418 553.685 823.081 554.499 823.362C565.207 827.137 572.992 833.422 577.854 842.218C581.903 849.514 585.253 856.911 587.649 865.118C589.277 870.689 590.919 876.132 592.576 881.446C594.164 886.557 594.859 886.405 594.66 880.991Z" fill="white"/>
<path opacity="0.1" d="M327.66 981.991C327.462 976.25 327.333 970.471 327.273 964.652C327.174 955.597 328.504 946.414 331.263 937.101C332.498 932.889 333.332 928.777 336.8 926.081C338.348 924.879 339.901 923.621 341.46 922.306C341.612 922.18 341.786 922.089 341.971 922.041C342.156 921.992 342.347 921.987 342.533 922.025C342.72 922.063 342.898 922.143 343.056 922.261C343.214 922.379 343.35 922.532 343.454 922.711C344.367 924.25 344.968 925.873 345.255 927.581C347.121 938.522 347.731 951.609 347.086 966.842C346.66 977.076 344.968 987.433 342.01 997.914C341.474 999.802 341.703 1001.55 342.695 1003.17C345.176 1007.24 347.826 1011.31 350.644 1015.39C362.473 1032.5 372.784 1048.04 381.577 1062.03C382.003 1062.69 382.107 1063.42 381.889 1064.2L381.77 1064.63C381.742 1064.72 381.693 1064.8 381.628 1064.86C381.563 1064.93 381.485 1064.97 381.4 1064.99C381.316 1065.01 381.229 1065 381.147 1064.97C381.066 1064.94 380.993 1064.88 380.936 1064.81L337.5 1008.11C337.054 1007.53 336.484 1007.08 335.843 1006.82C335.202 1006.56 334.512 1006.49 333.838 1006.61C315.96 1009.96 299.779 1010.77 281.931 1004.74C268.921 1000.36 260.064 992.152 251.163 981.317C251.091 981.234 251.04 981.131 251.016 981.018C250.992 980.905 250.995 980.787 251.026 980.676C251.056 980.566 251.113 980.466 251.189 980.389C251.266 980.312 251.36 980.26 251.46 980.238C257.454 978.767 263.106 977.553 268.415 976.599C280.845 974.357 295.031 980.474 306.136 986.119C307.098 986.613 307.689 986.265 307.907 985.074C307.937 984.94 307.743 984.558 307.327 983.929C305.401 981.008 303.466 978.104 301.521 975.217C292.173 961.383 287.499 942.544 286.367 925.373C286.308 924.418 286.685 924.081 287.499 924.362C298.207 928.137 305.992 934.422 310.854 943.218C314.903 950.514 318.253 957.911 320.649 966.118C322.277 971.689 323.919 977.132 325.576 982.446C327.164 987.557 327.859 987.405 327.66 981.991Z" fill="white"/>
<path opacity="0.1" d="M257.291 592.485C255.896 590.069 254.073 588.195 251.822 586.864C245.106 582.879 238.99 578.149 233.474 572.673C228.707 567.939 226.311 562.913 226.276 555.613C226.217 544.742 226.066 533.871 228.566 523.251C228.606 523.086 228.68 522.934 228.783 522.809C228.886 522.683 229.014 522.588 229.156 522.531C229.299 522.474 229.451 522.456 229.601 522.48C229.751 522.505 229.893 522.57 230.015 522.67C235.578 527.232 239.586 534.07 243.641 540.127C246.968 545.108 250.828 549.591 255.222 553.577C255.394 553.734 255.599 553.838 255.817 553.88C256.036 553.921 256.259 553.898 256.467 553.813C256.675 553.728 256.86 553.584 257.005 553.394C257.149 553.204 257.247 552.976 257.291 552.73C257.602 550.949 257.104 549.38 255.795 548.022C249.968 541.974 244.522 535.344 239.458 528.132C236.899 524.468 233.475 519.998 235.648 515.105C237.214 511.578 238.912 508.197 240.743 504.961C243.186 500.637 245.99 496.868 247.615 491.921C250.221 483.947 253.364 476.184 258.343 470.047C258.46 469.902 258.612 469.8 258.778 469.753C258.945 469.706 259.119 469.716 259.277 469.783C260.602 470.329 261.568 471.427 262.176 473.076C263.773 477.44 265.358 481.738 266.932 485.97C268.322 489.752 270.379 493.059 272.483 496.391C272.567 496.525 272.683 496.629 272.818 496.69C272.953 496.751 273.1 496.768 273.243 496.737C273.385 496.706 273.517 496.63 273.623 496.517C273.728 496.405 273.803 496.26 273.838 496.1C274.376 493.654 274.294 491.075 273.71 488.668C272.323 482.955 271.065 477.559 269.935 472.481C269 468.262 272.109 463.62 274.353 460.552C281.286 451.091 288.181 441.847 295.037 432.819C295.318 432.45 295.693 432.189 296.111 432.071C296.529 431.953 296.97 431.983 297.374 432.157C298.605 432.686 299.684 433.44 300.611 434.419C307.748 441.966 315.25 449.129 323.119 455.91C325.129 457.646 326.395 459.802 326.917 462.377C327.781 466.609 328.833 470.986 325.409 474.319C317.829 481.725 310.833 489.32 304.421 497.106C300.541 501.8 301.523 506.588 303.428 512.182C304.144 514.272 305.531 515.136 307.588 514.774C311.935 513.994 316.201 512.5 320.127 510.251C325.047 507.448 325.97 503.017 327.992 497.423C331.416 487.914 334.828 478.247 334.735 468.103C334.711 466.005 335.292 465.767 336.476 467.389C338.47 470.122 340.535 472.868 342.67 475.628C345.856 479.754 348.462 484.815 350.488 490.81C352.626 497.132 352.1 504.022 352.731 510.661C353.69 520.818 352.007 531.716 348.922 541.304C347.66 545.192 346.771 548.961 346.257 552.611C345.026 561.331 343.456 569.169 341.548 576.125C339.024 585.317 327.291 587.393 320.396 589.826C313.77 592.154 306.782 592.313 300.039 592.762C297.46 592.939 296.661 594.367 297.643 597.047C297.76 597.373 297.892 597.691 298.04 597.999C298.921 599.86 300.292 600.874 302.154 601.041C306.68 601.429 311.012 600.883 315.149 599.401C321.771 597.03 328.853 594.676 336.394 592.339C336.515 592.3 336.642 592.302 336.762 592.345C336.882 592.387 336.988 592.468 337.067 592.577C337.146 592.687 337.196 592.82 337.209 592.961C337.223 593.102 337.199 593.245 337.142 593.371C336.371 595.072 335.342 596.562 334.057 597.841C329.523 602.373 325.359 607.222 321.564 612.388C319.383 615.368 316.356 617.264 312.484 618.075C302.084 620.244 294.429 616.528 285.174 612.269C285.1 612.233 285.019 612.22 284.939 612.232C284.859 612.243 284.783 612.278 284.719 612.333C284.655 612.388 284.605 612.461 284.574 612.545C284.543 612.629 284.532 612.721 284.543 612.812C285.532 621.743 287.383 630.035 290.094 637.688C290.639 639.24 290.179 640.09 288.715 640.24L281.738 640.981C280.383 641.122 279.44 640.483 278.91 639.063C276.409 632.257 274.82 625.243 274.142 618.022C274.002 616.523 273.511 616.356 272.67 617.52C270.769 620.138 268.268 622.431 265.167 624.397C261.693 626.601 258.226 626.389 254.767 623.762C248.9 619.292 242.936 614.853 236.875 610.444C234.483 608.707 232.629 606.261 231.313 603.104C228.368 596.086 225.968 588.83 224.114 581.336C223.81 580.11 224.114 579.872 225.025 580.622C229.536 584.307 234.768 587.538 240.72 590.316C246.321 592.925 251.72 593.939 256.917 593.357C257.462 593.296 257.587 593.005 257.291 592.485ZM295.224 474.623C293.97 478.405 293.615 482.227 294.161 486.089C294.18 486.233 294.243 486.365 294.339 486.461C294.435 486.558 294.558 486.614 294.686 486.618C295.208 486.645 295.684 486.468 296.112 486.089C301.908 480.958 310.591 474.213 311.514 465.339C311.566 464.864 311.513 464.382 311.36 463.936C311.208 463.489 310.96 463.092 310.64 462.778C310.319 462.465 309.935 462.245 309.521 462.138C309.107 462.031 308.676 462.04 308.266 462.165C301.675 464.166 297.327 468.319 295.224 474.623ZM249.321 511.27C249.578 520.091 256.134 532.02 264.162 533.858C264.286 533.886 264.415 533.884 264.538 533.852C264.662 533.819 264.778 533.757 264.88 533.67C264.981 533.583 265.066 533.472 265.127 533.345C265.189 533.217 265.226 533.077 265.237 532.932C265.284 532.315 265.101 531.799 264.688 531.385C262.312 528.996 260.22 526.597 258.413 524.19C255.328 520.091 253.458 514.999 250.361 510.82C249.629 509.815 249.282 509.965 249.321 511.27ZM304.549 553.854C302.095 555.283 300.155 555.891 298.508 558.655C298.379 558.871 298.297 559.119 298.269 559.377C298.241 559.636 298.267 559.899 298.346 560.144C298.424 560.389 298.553 560.609 298.721 560.787C298.89 560.965 299.093 561.095 299.314 561.168C299.844 561.344 300.401 561.379 300.985 561.274C306.649 560.242 311.877 558.95 316.668 557.399C317.035 557.281 317.357 557.029 317.583 556.682C317.81 556.335 317.928 555.912 317.918 555.481C317.731 548.115 308.16 551.765 304.549 553.854ZM311.182 575.258C311.226 574.945 311.116 574.606 310.859 574.262C310.601 573.918 310.201 573.575 309.68 573.253C309.16 572.931 308.53 572.636 307.826 572.386C307.122 572.135 306.358 571.933 305.577 571.791C304.797 571.65 304.015 571.572 303.277 571.561C302.539 571.55 301.859 571.608 301.276 571.73C300.693 571.852 300.218 572.036 299.878 572.271C299.538 572.507 299.341 572.79 299.296 573.104C299.252 573.418 299.362 573.756 299.619 574.1C299.877 574.445 300.277 574.787 300.798 575.109C301.318 575.431 301.948 575.726 302.652 575.977C303.356 576.228 304.12 576.429 304.901 576.571C305.681 576.712 306.463 576.791 307.201 576.801C307.939 576.812 308.619 576.755 309.202 576.633C309.785 576.511 310.26 576.327 310.6 576.091C310.939 575.855 311.137 575.572 311.182 575.258ZM264.577 604.75C264.471 604.386 264.214 604.081 263.82 603.854C263.427 603.628 262.904 603.483 262.283 603.428C261.662 603.374 260.954 603.411 260.199 603.537C259.445 603.663 258.659 603.876 257.886 604.163C256.326 604.744 254.914 605.593 253.962 606.524C253.01 607.456 252.595 608.392 252.809 609.129C252.915 609.493 253.172 609.798 253.566 610.025C253.959 610.252 254.482 610.396 255.103 610.451C255.724 610.505 256.432 610.469 257.187 610.343C257.941 610.216 258.727 610.004 259.5 609.716C261.06 609.135 262.472 608.286 263.424 607.355C264.376 606.424 264.791 605.487 264.577 604.75Z" fill="white"/>
<g opacity="0.1">
<path d="M82.1172 957.466C82.8825 949.716 82.2958 943.122 80.357 937.685C79.4386 935.14 77.7549 933.767 75.3059 933.564C74.0559 933.449 72.9207 932.986 71.9003 932.176L68.9537 929.834C53.1372 912.974 49.0811 893.786 56.7853 872.27C61.3261 859.632 67.7166 848.484 75.9565 838.824C76.3374 838.383 76.8019 838.045 77.3149 837.836C77.8279 837.628 78.376 837.554 78.9178 837.621C79.4596 837.688 79.9809 837.894 80.4424 838.222C80.9038 838.551 81.2933 838.994 81.5815 839.519C84.3112 844.406 87.3468 848.729 90.6887 852.489C92.2959 854.282 92.7679 853.964 92.1046 851.535C90.472 845.404 88.0866 839.331 84.9488 833.315C84.7207 832.86 84.6344 832.332 84.7039 831.82C84.7735 831.307 84.9949 830.84 85.3315 830.496L131.748 782.562C133.865 780.393 135.37 780.841 136.263 783.907L137.258 787.42C137.692 788.866 138.572 789.43 139.899 789.112C140.664 788.91 141.2 788.418 141.506 787.637C141.812 786.799 141.914 785.931 141.812 785.035C141.531 782.461 141.289 779.901 141.085 777.356C141.039 776.625 141.159 775.891 141.434 775.224C141.708 774.556 142.128 773.977 142.654 773.539C166.812 753.787 193.203 743.275 221.826 742.003C223.535 741.945 224.236 742.87 223.93 744.779C220.946 763.374 216.647 781.579 211.035 799.393C210.473 801.157 209.377 802.198 207.744 802.516C205.371 802.95 202.884 802.733 200.282 801.866C198.445 801.258 196.838 801.605 195.46 802.907C195.154 803.196 194.976 803.572 194.925 804.035C194.746 805.162 195.103 805.987 195.996 806.507C198.904 808.213 201.953 809.341 205.142 809.891C205.544 809.965 205.925 810.15 206.249 810.43C206.574 810.711 206.831 811.076 206.999 811.494C207.166 811.912 207.238 812.37 207.207 812.824C207.177 813.279 207.046 813.717 206.825 814.098L175.677 868.105C174.555 870.043 172.999 870.766 171.009 870.274C166.953 869.291 162.807 868.539 158.572 868.019C153.241 867.382 152.679 868.944 156.889 872.703C159.746 875.277 162.973 877.504 166.57 879.384C167.048 879.628 167.479 879.976 167.838 880.409C168.198 880.842 168.478 881.352 168.662 881.908C168.847 882.464 168.934 883.057 168.916 883.651C168.898 884.245 168.777 884.829 168.56 885.37C162.667 900.003 155.868 913.465 148.164 925.756C145.332 930.267 141.888 930.976 137.832 927.882C132.296 923.602 126.301 920.724 119.847 919.249C117.143 918.613 116.812 919.35 118.852 921.461L135.957 939.073C136.396 939.529 136.659 940.164 136.688 940.838C136.716 941.512 136.509 942.172 136.11 942.674C128.253 952.477 119.031 959.259 108.444 963.019C101.862 965.361 93.0867 963.51 82.1172 957.466ZM158.802 816.571C160.817 816.311 162.093 815.111 162.628 812.971C162.695 812.708 162.7 812.43 162.643 812.165C162.585 811.899 162.468 811.656 162.301 811.458C162.134 811.26 161.925 811.116 161.694 811.039C161.462 810.962 161.217 810.955 160.983 811.019C154.44 812.884 147.322 825.03 142.501 830.366C138.495 834.761 134.873 839.374 131.633 844.203C125.256 853.66 119.082 862.871 113.113 871.836C106.913 881.076 99.5281 888.624 94.4388 898.644C92.551 902.317 89.9234 904.428 86.556 904.977C85.6632 905.122 85.1657 905.715 85.0636 906.756C84.4769 912.887 81.8876 918.309 77.2957 923.023C76.5814 923.746 76.3391 924.628 76.5687 925.669C76.8493 926.913 77.9334 926.927 79.8212 925.713C80.2738 925.428 80.655 925.026 80.931 924.541C86.2116 915.143 91.9898 906.25 98.2654 897.863C104.592 889.448 110.714 880.83 116.633 872.009C122.245 863.652 127.998 855.092 133.891 846.329C140.549 836.439 148.585 828.761 154.937 819.087C155.906 817.612 157.195 816.773 158.802 816.571ZM182.72 821.466C182.769 821.293 182.62 821.049 182.281 820.75C181.941 820.45 181.418 820.1 180.742 819.72C180.066 819.34 179.249 818.937 178.339 818.535C177.429 818.132 176.443 817.738 175.437 817.374C174.432 817.01 173.427 816.684 172.479 816.415C171.531 816.145 170.66 815.937 169.915 815.803C169.169 815.668 168.564 815.61 168.134 815.632C167.705 815.653 167.458 815.753 167.409 815.927C167.36 816.1 167.51 816.344 167.849 816.644C168.189 816.943 168.711 817.293 169.388 817.673C170.064 818.053 170.881 818.456 171.791 818.859C172.701 819.261 173.687 819.655 174.693 820.019C175.698 820.383 176.703 820.709 177.651 820.979C178.598 821.248 179.47 821.456 180.215 821.59C180.96 821.725 181.565 821.783 181.995 821.762C182.425 821.74 182.672 821.64 182.72 821.466Z" fill="white"/>
<path d="M154.937 819.087C148.585 828.761 140.549 836.439 133.891 846.329C127.998 855.092 122.245 863.652 116.633 872.009C110.714 880.83 104.592 889.448 98.2654 897.863C91.9898 906.25 86.2116 915.143 80.931 924.541C80.655 925.026 80.2738 925.428 79.8212 925.713C77.9334 926.927 76.8493 926.913 76.5687 925.669C76.3391 924.628 76.5814 923.746 77.2957 923.023C81.8876 918.309 84.4769 912.887 85.0636 906.756C85.1657 905.715 85.6632 905.122 86.556 904.977C89.9234 904.428 92.551 902.317 94.4388 898.644C99.5281 888.624 106.913 881.076 113.113 871.836C119.082 862.871 125.256 853.66 131.633 844.203C134.873 839.374 138.495 834.761 142.501 830.366C147.322 825.03 154.44 812.884 160.983 811.019C161.217 810.955 161.462 810.962 161.694 811.039C161.925 811.116 162.134 811.26 162.301 811.458C162.468 811.656 162.585 811.899 162.643 812.165C162.7 812.43 162.695 812.708 162.628 812.971C162.093 815.111 160.817 816.311 158.802 816.571C157.195 816.773 155.906 817.612 154.937 819.087Z" fill="#346830"/>
<path d="M174.693 820.019C178.921 821.549 182.515 822.197 182.72 821.466C182.926 820.736 179.665 818.904 175.437 817.374C171.209 815.844 167.615 815.197 167.409 815.927C167.204 816.657 170.465 818.49 174.693 820.019Z" fill="#346830"/>
</g>
</g>
<g opacity="0.1">
<path d="M362.08 59.8239C373.858 22.3049 401.847 -9.41936 433.518 -28.7218C434.442 -29.2824 435.039 -28.9958 435.311 -27.8618C440.21 -7.10069 441.945 14.2162 440.516 36.0888C438.794 62.6106 430.623 87.2211 416.003 109.92C400.046 134.687 379.374 155.011 353.987 170.894C353.88 170.962 353.76 170.998 353.637 171C353.515 171.002 353.394 170.969 353.285 170.904C353.177 170.84 353.085 170.745 353.018 170.63C352.951 170.515 352.911 170.383 352.901 170.246C350.749 143.283 351.449 117.107 354.999 91.7185C356.502 80.9687 358.811 70.2168 362.08 59.8239Z" fill="white"/>
<path d="M294.731 114.206C284.897 90.6121 285.002 61.3669 291.904 36.0248C292.106 35.287 292.503 35.1128 293.093 35.5021C303.866 42.6729 313.389 51.734 321.662 62.6855C331.698 75.9599 337.94 91.6661 340.39 109.804C343.061 129.597 341.713 149.746 336.348 170.251C336.326 170.338 336.285 170.417 336.228 170.481C336.172 170.545 336.102 170.592 336.025 170.618C335.948 170.643 335.866 170.647 335.788 170.628C335.709 170.609 335.637 170.568 335.576 170.508C323.551 159.025 313.179 146.44 304.46 132.752C300.768 126.957 297.452 120.746 294.731 114.206Z" fill="white"/>
</g>
<path opacity="0.1" d="M440.66 321.991C440.462 316.25 440.333 310.471 440.273 304.652C440.174 295.597 441.504 286.414 444.263 277.101C445.498 272.889 446.332 268.777 449.8 266.081C451.348 264.879 452.901 263.621 454.46 262.306C454.612 262.18 454.786 262.089 454.971 262.041C455.156 261.992 455.347 261.987 455.533 262.025C455.72 262.063 455.898 262.143 456.056 262.261C456.214 262.379 456.35 262.532 456.454 262.711C457.367 264.25 457.968 265.873 458.255 267.581C460.121 278.522 460.731 291.609 460.086 306.842C459.66 317.076 457.968 327.433 455.01 337.914C454.474 339.802 454.703 341.554 455.695 343.172C458.176 347.238 460.826 351.31 463.644 355.388C475.473 372.497 485.784 388.044 494.577 402.03C495.003 402.693 495.107 403.418 494.889 404.204L494.77 404.625C494.742 404.717 494.693 404.799 494.628 404.863C494.563 404.927 494.485 404.971 494.4 404.99C494.316 405.008 494.229 405.002 494.147 404.97C494.066 404.939 493.993 404.884 493.936 404.811L450.5 348.109C450.054 347.527 449.484 347.083 448.843 346.821C448.202 346.558 447.512 346.485 446.838 346.609C428.96 349.962 412.779 350.771 394.931 344.739C381.921 340.358 373.064 332.152 364.163 321.317C364.091 321.234 364.04 321.131 364.016 321.018C363.992 320.905 363.995 320.787 364.026 320.676C364.056 320.566 364.113 320.466 364.189 320.389C364.266 320.312 364.36 320.26 364.46 320.238C370.454 318.767 376.106 317.553 381.415 316.599C393.845 314.357 408.031 320.474 419.136 326.119C420.098 326.613 420.689 326.265 420.907 325.074C420.937 324.94 420.743 324.558 420.327 323.929C418.401 321.008 416.466 318.104 414.521 315.217C405.173 301.383 400.499 282.544 399.367 265.373C399.308 264.418 399.685 264.081 400.499 264.362C411.207 268.137 418.992 274.422 423.854 283.218C427.903 290.514 431.253 297.911 433.649 306.118C435.277 311.689 436.919 317.132 438.576 322.446C440.164 327.557 440.859 327.405 440.66 321.991Z" fill="white"/>
<g opacity="0.1">
<path d="M41.1172 286.466C41.8825 278.716 41.2958 272.122 39.357 266.685C38.4386 264.14 36.7549 262.767 34.3059 262.564C33.0559 262.449 31.9207 261.986 30.9003 261.176L27.9537 258.834C12.1372 241.974 8.08107 222.786 15.7853 201.27C20.3261 188.632 26.7166 177.484 34.9565 167.824C35.3374 167.383 35.8019 167.045 36.3149 166.836C36.8279 166.628 37.376 166.554 37.9178 166.621C38.4596 166.688 38.9809 166.894 39.4424 167.222C39.9038 167.551 40.2933 167.994 40.5815 168.519C43.3112 173.406 46.3468 177.729 49.6887 181.489C51.2959 183.282 51.7679 182.964 51.1046 180.535C49.472 174.404 47.0866 168.331 43.9488 162.315C43.7207 161.86 43.6344 161.332 43.7039 160.82C43.7735 160.307 43.9949 159.84 44.3315 159.496L90.7479 111.562C92.8653 109.393 94.3704 109.841 95.2633 112.907L96.2582 116.42C96.6919 117.866 97.572 118.43 98.8986 118.112C99.6639 117.91 100.2 117.418 100.506 116.637C100.812 115.799 100.914 114.931 100.812 114.035C100.531 111.461 100.289 108.901 100.085 106.356C100.039 105.625 100.159 104.891 100.434 104.224C100.708 103.556 101.128 102.977 101.654 102.539C125.812 82.7872 152.203 72.275 180.826 71.0026C182.535 70.9447 183.236 71.8701 182.93 73.7788C179.946 92.3739 175.647 110.579 170.035 128.393C169.473 130.157 168.377 131.198 166.744 131.516C164.371 131.95 161.884 131.733 159.282 130.866C157.445 130.258 155.838 130.605 154.46 131.907C154.154 132.196 153.976 132.572 153.925 133.035C153.746 134.162 154.103 134.987 154.996 135.507C157.904 137.213 160.953 138.341 164.142 138.891C164.544 138.965 164.925 139.15 165.249 139.43C165.574 139.711 165.831 140.076 165.999 140.494C166.166 140.912 166.238 141.37 166.207 141.824C166.177 142.279 166.046 142.717 165.825 143.098L134.677 197.105C133.555 199.043 131.999 199.766 130.009 199.274C125.953 198.291 121.807 197.539 117.572 197.019C112.241 196.382 111.679 197.944 115.889 201.703C118.746 204.277 121.973 206.504 125.57 208.384C126.048 208.628 126.479 208.976 126.838 209.409C127.198 209.842 127.478 210.352 127.662 210.908C127.847 211.464 127.934 212.057 127.916 212.651C127.898 213.245 127.777 213.829 127.56 214.37C121.667 229.003 114.868 242.465 107.164 254.756C104.332 259.267 100.888 259.976 96.8322 256.882C91.2964 252.602 85.3015 249.724 78.8473 248.249C76.1432 247.613 75.8115 248.35 77.8524 250.461L94.9572 268.073C95.3965 268.529 95.659 269.164 95.6876 269.838C95.7163 270.512 95.5089 271.172 95.1103 271.674C87.2531 281.477 78.031 288.259 67.4441 292.019C60.8624 294.361 52.0867 292.51 41.1172 286.466ZM117.802 145.571C119.817 145.311 121.093 144.111 121.628 141.971C121.695 141.708 121.7 141.43 121.643 141.165C121.585 140.899 121.468 140.656 121.301 140.458C121.134 140.26 120.925 140.116 120.694 140.039C120.462 139.962 120.217 139.955 119.983 140.019C113.44 141.884 106.322 154.03 101.501 159.366C97.4955 163.761 93.873 168.374 90.6331 173.203C84.2555 182.66 78.082 191.871 72.1125 200.836C65.9135 210.076 58.5281 217.624 53.4388 227.644C51.551 231.317 48.9234 233.428 45.556 233.977C44.6632 234.122 44.1657 234.715 44.0636 235.756C43.4769 241.887 40.8876 247.309 36.2957 252.023C35.5814 252.746 35.3391 253.628 35.5687 254.669C35.8493 255.913 36.9334 255.927 38.8212 254.713C39.2738 254.428 39.655 254.026 39.931 253.541C45.2116 244.143 50.9898 235.25 57.2654 226.863C63.592 218.448 69.7145 209.83 75.6329 201.009C81.2452 192.652 86.9979 184.092 92.8908 175.329C99.5491 165.439 107.585 157.761 113.937 148.087C114.906 146.612 116.195 145.773 117.802 145.571ZM141.72 150.466C141.769 150.293 141.62 150.049 141.281 149.75C140.941 149.45 140.418 149.1 139.742 148.72C139.066 148.34 138.249 147.937 137.339 147.535C136.429 147.132 135.443 146.738 134.437 146.374C133.432 146.01 132.427 145.684 131.479 145.415C130.531 145.145 129.66 144.937 128.915 144.803C128.169 144.668 127.564 144.61 127.134 144.632C126.705 144.653 126.458 144.753 126.409 144.927C126.36 145.1 126.51 145.344 126.849 145.644C127.189 145.943 127.711 146.293 128.388 146.673C129.064 147.053 129.881 147.456 130.791 147.859C131.701 148.261 132.687 148.655 133.693 149.019C134.698 149.383 135.703 149.709 136.651 149.979C137.598 150.248 138.47 150.456 139.215 150.59C139.96 150.725 140.565 150.783 140.995 150.762C141.425 150.74 141.672 150.64 141.72 150.466Z" fill="white"/>
<path d="M113.937 148.087C107.585 157.761 99.5491 165.439 92.8908 175.329C86.9979 184.092 81.2452 192.652 75.6329 201.009C69.7145 209.83 63.592 218.448 57.2654 226.863C50.9898 235.25 45.2116 244.143 39.931 253.541C39.655 254.026 39.2738 254.428 38.8212 254.713C36.9334 255.927 35.8493 255.913 35.5687 254.669C35.3391 253.628 35.5814 252.746 36.2957 252.023C40.8876 247.309 43.4769 241.887 44.0636 235.756C44.1657 234.715 44.6632 234.122 45.556 233.977C48.9234 233.428 51.551 231.317 53.4388 227.644C58.5281 217.624 65.9135 210.076 72.1125 200.836C78.082 191.871 84.2555 182.66 90.6331 173.203C93.873 168.374 97.4955 163.761 101.501 159.366C106.322 154.03 113.44 141.884 119.983 140.019C120.217 139.955 120.462 139.962 120.694 140.039C120.925 140.116 121.134 140.26 121.301 140.458C121.468 140.656 121.585 140.899 121.643 141.165C121.7 141.43 121.695 141.708 121.628 141.971C121.093 144.111 119.817 145.311 117.802 145.571C116.195 145.773 114.906 146.612 113.937 148.087Z" fill="#346830"/>
<path d="M133.693 149.019C137.921 150.549 141.515 151.197 141.72 150.466C141.926 149.736 138.665 147.904 134.437 146.374C130.209 144.844 126.615 144.197 126.409 144.927C126.204 145.657 129.465 147.49 133.693 149.019Z" fill="#346830"/>
</g>
<g opacity="0.1">
<path d="M928.08 350.824C939.858 313.305 967.847 281.581 999.518 262.278C1000.44 261.718 1001.04 262.004 1001.31 263.138C1006.21 283.899 1007.94 305.216 1006.52 327.089C1004.79 353.611 996.623 378.221 982.003 400.92C966.046 425.687 945.374 446.011 919.987 461.894C919.88 461.962 919.76 461.998 919.637 462C919.515 462.002 919.394 461.969 919.285 461.904C919.177 461.84 919.085 461.745 919.018 461.63C918.951 461.515 918.911 461.383 918.901 461.246C916.749 434.283 917.449 408.107 920.999 382.718C922.502 371.969 924.811 361.217 928.08 350.824Z" fill="white"/>
<path d="M860.731 405.206C850.897 381.612 851.002 352.367 857.904 327.025C858.106 326.287 858.503 326.113 859.093 326.502C869.866 333.673 879.389 342.734 887.662 353.686C897.698 366.96 903.94 382.666 906.39 400.804C909.061 420.597 907.713 440.746 902.348 461.251C902.326 461.338 902.285 461.417 902.228 461.481C902.172 461.545 902.102 461.592 902.025 461.618C901.948 461.643 901.866 461.647 901.788 461.628C901.709 461.609 901.637 461.568 901.576 461.508C889.551 450.025 879.179 437.44 870.46 423.752C866.768 417.957 863.452 411.746 860.731 405.206Z" fill="white"/>
</g>
<g opacity="0.1">
<path d="M818.08 716.824C829.858 679.305 857.847 647.581 889.518 628.278C890.442 627.718 891.039 628.004 891.311 629.138C896.21 649.899 897.945 671.216 896.516 693.089C894.794 719.611 886.623 744.221 872.003 766.92C856.046 791.687 835.374 812.011 809.987 827.894C809.88 827.962 809.76 827.998 809.637 828C809.515 828.002 809.394 827.969 809.285 827.904C809.177 827.84 809.085 827.745 809.018 827.63C808.951 827.515 808.911 827.383 808.901 827.246C806.749 800.283 807.449 774.107 810.999 748.718C812.502 737.969 814.811 727.217 818.08 716.824Z" fill="white"/>
<path d="M750.731 771.206C740.897 747.612 741.002 718.367 747.904 693.025C748.106 692.287 748.503 692.113 749.093 692.502C759.866 699.673 769.389 708.734 777.662 719.686C787.698 732.96 793.94 748.666 796.39 766.804C799.061 786.597 797.713 806.746 792.348 827.251C792.326 827.338 792.285 827.417 792.228 827.481C792.172 827.545 792.102 827.592 792.025 827.618C791.948 827.643 791.866 827.647 791.788 827.628C791.709 827.609 791.637 827.568 791.576 827.508C779.551 816.025 769.179 803.44 760.46 789.752C756.768 783.957 753.452 777.746 750.731 771.206Z" fill="white"/>
</g>
<path opacity="0.1" d="M621.66 30.9907C621.462 25.2503 621.333 19.4706 621.273 13.6516C621.174 4.59729 622.504 -4.5862 625.263 -13.8989C626.498 -18.1115 627.332 -22.223 630.8 -24.9191C632.348 -26.1211 633.901 -27.3792 635.46 -28.6936C635.612 -28.8204 635.786 -28.9107 635.971 -28.9591C636.156 -29.0076 636.347 -29.013 636.533 -28.9752C636.72 -28.9374 636.898 -28.8571 637.056 -28.7391C637.214 -28.6212 637.35 -28.4681 637.454 -28.2892C638.367 -26.7502 638.968 -25.1269 639.255 -23.4194C641.121 -12.4778 641.731 0.609356 641.086 15.8422C640.66 26.076 638.968 36.4334 636.01 46.9144C635.474 48.8016 635.703 50.5541 636.695 52.1717C639.176 56.2383 641.826 60.3105 644.644 64.3883C656.473 81.4971 666.784 97.0445 675.577 111.03C676.003 111.693 676.107 112.418 675.889 113.204L675.77 113.625C675.742 113.717 675.693 113.799 675.628 113.863C675.563 113.927 675.485 113.971 675.4 113.99C675.316 114.008 675.229 114.002 675.147 113.97C675.066 113.939 674.993 113.884 674.936 113.811L631.5 57.1089C631.054 56.5267 630.484 56.0833 629.843 55.8208C629.202 55.5583 628.512 55.4855 627.838 55.6092C609.96 58.9625 593.779 59.7713 575.931 53.7388C562.921 49.3577 554.064 41.1515 545.163 30.3167C545.091 30.234 545.04 30.1308 545.016 30.018C544.992 29.9052 544.995 29.7872 545.026 29.6764C545.056 29.5657 545.113 29.4664 545.189 29.3892C545.266 29.312 545.36 29.2599 545.46 29.2383C551.454 27.7667 557.106 26.5534 562.415 25.5986C574.845 23.3575 589.031 29.4742 600.136 35.1191C601.098 35.6134 601.689 35.2651 601.907 34.0743C601.937 33.9395 601.743 33.5576 601.327 32.9285C599.401 30.0078 597.466 27.1039 595.521 24.2168C586.173 10.3826 581.499 -8.45619 580.367 -25.6268C580.308 -26.5817 580.685 -26.9187 581.499 -26.6378C592.207 -22.8633 599.992 -16.5781 604.854 -7.78216C608.903 -0.485919 612.253 6.91142 614.649 15.1176C616.277 20.6895 617.919 26.1322 619.576 31.4457C621.164 36.557 621.859 36.4053 621.66 30.9907Z" fill="white"/>
<path opacity="0.1" d="M1119.66 500.991C1119.46 495.25 1119.33 489.471 1119.27 483.652C1119.17 474.597 1120.5 465.414 1123.26 456.101C1124.5 451.889 1125.33 447.777 1128.8 445.081C1130.35 443.879 1131.9 442.621 1133.46 441.306C1133.61 441.18 1133.79 441.089 1133.97 441.041C1134.16 440.992 1134.35 440.987 1134.53 441.025C1134.72 441.063 1134.9 441.143 1135.06 441.261C1135.21 441.379 1135.35 441.532 1135.45 441.711C1136.37 443.25 1136.97 444.873 1137.26 446.581C1139.12 457.522 1139.73 470.609 1139.09 485.842C1138.66 496.076 1136.97 506.433 1134.01 516.914C1133.47 518.802 1133.7 520.554 1134.7 522.172C1137.18 526.238 1139.83 530.31 1142.64 534.388C1154.47 551.497 1164.78 567.044 1173.58 581.03C1174 581.693 1174.11 582.418 1173.89 583.204L1173.77 583.625C1173.74 583.717 1173.69 583.799 1173.63 583.863C1173.56 583.927 1173.48 583.971 1173.4 583.99C1173.32 584.008 1173.23 584.002 1173.15 583.97C1173.07 583.939 1172.99 583.884 1172.94 583.811L1129.5 527.109C1129.05 526.527 1128.48 526.083 1127.84 525.821C1127.2 525.558 1126.51 525.485 1125.84 525.609C1107.96 528.962 1091.78 529.771 1073.93 523.739C1060.92 519.358 1052.06 511.152 1043.16 500.317C1043.09 500.234 1043.04 500.131 1043.02 500.018C1042.99 499.905 1043 499.787 1043.03 499.676C1043.06 499.566 1043.11 499.466 1043.19 499.389C1043.27 499.312 1043.36 499.26 1043.46 499.238C1049.45 497.767 1055.11 496.553 1060.42 495.599C1072.84 493.357 1087.03 499.474 1098.14 505.119C1099.1 505.613 1099.69 505.265 1099.91 504.074C1099.94 503.94 1099.74 503.558 1099.33 502.929C1097.4 500.008 1095.47 497.104 1093.52 494.217C1084.17 480.383 1079.5 461.544 1078.37 444.373C1078.31 443.418 1078.68 443.081 1079.5 443.362C1090.21 447.137 1097.99 453.422 1102.85 462.218C1106.9 469.514 1110.25 476.911 1112.65 485.118C1114.28 490.689 1115.92 496.132 1117.58 501.446C1119.16 506.557 1119.86 506.405 1119.66 500.991Z" fill="white"/>
<path opacity="0.1" d="M782.291 212.485C780.896 210.069 779.073 208.195 776.822 206.864C770.106 202.879 763.99 198.149 758.474 192.673C753.707 187.939 751.311 182.913 751.276 175.613C751.217 164.742 751.066 153.871 753.566 143.251C753.606 143.086 753.68 142.934 753.783 142.809C753.886 142.683 754.014 142.588 754.156 142.531C754.299 142.474 754.451 142.456 754.601 142.48C754.751 142.505 754.893 142.57 755.015 142.67C760.578 147.232 764.586 154.07 768.641 160.127C771.968 165.108 775.828 169.591 780.222 173.577C780.394 173.734 780.599 173.838 780.817 173.88C781.036 173.921 781.259 173.898 781.467 173.813C781.675 173.728 781.86 173.584 782.005 173.394C782.149 173.204 782.247 172.976 782.291 172.73C782.602 170.949 782.104 169.38 780.795 168.022C774.968 161.974 769.522 155.344 764.458 148.132C761.899 144.468 758.475 139.998 760.648 135.105C762.214 131.578 763.912 128.197 765.743 124.961C768.186 120.637 770.99 116.868 772.615 111.921C775.221 103.947 778.364 96.1835 783.343 90.0471C783.46 89.9024 783.612 89.7999 783.778 89.7528C783.945 89.7057 784.119 89.7161 784.277 89.7826C785.602 90.3292 786.568 91.4269 787.176 93.0756C788.773 97.4399 790.358 101.738 791.932 105.97C793.322 109.752 795.379 113.059 797.483 116.391C797.567 116.525 797.683 116.629 797.818 116.69C797.953 116.751 798.1 116.768 798.243 116.737C798.385 116.706 798.517 116.63 798.623 116.517C798.728 116.405 798.803 116.26 798.838 116.1C799.376 113.654 799.294 111.075 798.71 108.668C797.323 102.955 796.065 97.5589 794.935 92.4805C794 88.2617 797.109 83.6197 799.353 80.5515C806.286 71.0912 813.181 61.8469 820.037 52.8186C820.318 52.4503 820.693 52.1893 821.111 52.071C821.529 51.9527 821.97 51.9828 822.374 52.1573C823.605 52.6863 824.684 53.4402 825.611 54.4188C832.748 61.9659 840.25 69.1295 848.119 75.9095C850.129 77.6464 851.395 79.8021 851.917 82.3766C852.781 86.6086 853.833 90.9861 850.409 94.3188C842.829 101.725 835.833 109.32 829.421 117.106C825.541 121.8 826.523 126.588 828.428 132.182C829.144 134.272 830.531 135.136 832.588 134.774C836.935 133.994 841.201 132.5 845.127 130.251C850.047 127.448 850.97 123.017 852.992 117.423C856.416 107.914 859.828 98.2466 859.735 88.103C859.711 86.0047 860.292 85.7666 861.476 87.3889C863.47 90.1221 865.535 92.8685 867.67 95.6281C870.856 99.7543 873.462 104.815 875.488 110.81C877.626 117.132 877.1 124.022 877.731 130.661C878.69 140.818 877.007 151.716 873.922 161.304C872.66 165.192 871.771 168.961 871.257 172.611C870.026 181.331 868.456 189.169 866.548 196.125C864.024 205.317 852.291 207.393 845.396 209.826C838.77 212.154 831.782 212.313 825.039 212.762C822.46 212.939 821.661 214.367 822.643 217.047C822.76 217.373 822.892 217.691 823.04 217.999C823.921 219.86 825.292 220.874 827.154 221.041C831.68 221.429 836.012 220.883 840.149 219.401C846.771 217.03 853.853 214.676 861.394 212.339C861.515 212.3 861.642 212.302 861.762 212.345C861.882 212.387 861.988 212.468 862.067 212.577C862.146 212.687 862.196 212.82 862.209 212.961C862.223 213.102 862.199 213.245 862.142 213.371C861.371 215.072 860.342 216.562 859.057 217.841C854.523 222.373 850.359 227.222 846.564 232.388C844.383 235.368 841.356 237.264 837.484 238.075C827.084 240.244 819.429 236.528 810.174 232.269C810.1 232.233 810.019 232.22 809.939 232.232C809.859 232.243 809.783 232.278 809.719 232.333C809.655 232.388 809.605 232.461 809.574 232.545C809.543 232.629 809.532 232.721 809.543 232.812C810.532 241.743 812.383 250.035 815.094 257.688C815.639 259.24 815.179 260.09 813.715 260.24L806.738 260.981C805.383 261.122 804.44 260.483 803.91 259.063C801.409 252.257 799.82 245.243 799.142 238.022C799.002 236.523 798.511 236.356 797.67 237.52C795.769 240.138 793.268 242.431 790.167 244.397C786.693 246.601 783.226 246.389 779.767 243.762C773.9 239.292 767.936 234.853 761.875 230.444C759.483 228.707 757.629 226.261 756.313 223.104C753.368 216.086 750.968 208.83 749.114 201.336C748.81 200.11 749.114 199.872 750.025 200.622C754.536 204.307 759.768 207.538 765.72 210.316C771.321 212.925 776.72 213.939 781.917 213.357C782.462 213.296 782.587 213.005 782.291 212.485ZM820.224 94.623C818.97 98.4053 818.615 102.227 819.161 106.089C819.18 106.233 819.243 106.365 819.339 106.461C819.435 106.558 819.558 106.614 819.686 106.618C820.208 106.645 820.684 106.468 821.112 106.089C826.908 100.958 835.591 94.213 836.514 85.339C836.566 84.864 836.513 84.3821 836.36 83.9356C836.208 83.4891 835.96 83.0917 835.64 82.7783C835.319 82.4649 834.935 82.2451 834.521 82.1382C834.107 82.0312 833.676 82.0404 833.266 82.165C826.675 84.1664 822.327 88.319 820.224 94.623ZM774.321 131.27C774.578 140.091 781.134 152.02 789.162 153.858C789.286 153.886 789.415 153.884 789.538 153.852C789.662 153.819 789.778 153.757 789.88 153.67C789.981 153.583 790.066 153.472 790.127 153.345C790.189 153.217 790.226 153.077 790.237 152.932C790.284 152.315 790.101 151.799 789.688 151.385C787.312 148.996 785.22 146.597 783.413 144.19C780.328 140.091 778.458 134.999 775.361 130.82C774.629 129.815 774.282 129.965 774.321 131.27ZM829.549 173.854C827.095 175.283 825.155 175.891 823.508 178.655C823.379 178.871 823.297 179.119 823.269 179.377C823.241 179.636 823.267 179.899 823.346 180.144C823.424 180.389 823.553 180.609 823.721 180.787C823.89 180.965 824.093 181.095 824.314 181.168C824.844 181.344 825.401 181.379 825.985 181.274C831.649 180.242 836.877 178.95 841.668 177.399C842.035 177.281 842.357 177.029 842.583 176.682C842.81 176.335 842.928 175.912 842.918 175.481C842.731 168.115 833.16 171.765 829.549 173.854ZM836.182 195.258C836.226 194.945 836.116 194.606 835.859 194.262C835.601 193.918 835.201 193.575 834.68 193.253C834.16 192.931 833.53 192.636 832.826 192.386C832.122 192.135 831.358 191.933 830.577 191.791C829.797 191.65 829.015 191.572 828.277 191.561C827.539 191.55 826.859 191.608 826.276 191.73C825.693 191.852 825.218 192.036 824.878 192.271C824.538 192.507 824.341 192.79 824.296 193.104C824.252 193.418 824.362 193.756 824.619 194.1C824.877 194.445 825.277 194.787 825.798 195.109C826.318 195.431 826.948 195.726 827.652 195.977C828.356 196.228 829.12 196.429 829.901 196.571C830.681 196.712 831.463 196.791 832.201 196.801C832.939 196.812 833.619 196.755 834.202 196.633C834.785 196.511 835.26 196.327 835.6 196.091C835.939 195.855 836.137 195.572 836.182 195.258ZM789.577 224.75C789.471 224.386 789.214 224.081 788.82 223.854C788.427 223.628 787.904 223.483 787.283 223.428C786.662 223.374 785.954 223.411 785.199 223.537C784.445 223.663 783.659 223.876 782.886 224.163C781.326 224.744 779.914 225.593 778.962 226.524C778.01 227.456 777.595 228.392 777.809 229.129C777.915 229.493 778.172 229.798 778.566 230.025C778.959 230.252 779.482 230.396 780.103 230.451C780.724 230.505 781.432 230.469 782.187 230.343C782.941 230.216 783.727 230.004 784.5 229.716C786.06 229.135 787.472 228.286 788.424 227.355C789.376 226.424 789.791 225.487 789.577 224.75Z" fill="white"/>
<g opacity="0.1">
<path d="M607.117 577.466C607.883 569.716 607.296 563.122 605.357 557.685C604.439 555.14 602.755 553.767 600.306 553.564C599.056 553.449 597.921 552.986 596.9 552.176L593.954 549.834C578.137 532.974 574.081 513.786 581.785 492.27C586.326 479.632 592.717 468.484 600.956 458.824C601.337 458.383 601.802 458.045 602.315 457.836C602.828 457.628 603.376 457.554 603.918 457.621C604.46 457.688 604.981 457.894 605.442 458.222C605.904 458.551 606.293 458.994 606.582 459.519C609.311 464.406 612.347 468.729 615.689 472.489C617.296 474.282 617.768 473.964 617.105 471.535C615.472 465.404 613.087 459.331 609.949 453.315C609.721 452.86 609.634 452.332 609.704 451.82C609.774 451.307 609.995 450.84 610.332 450.496L656.748 402.562C658.865 400.393 660.37 400.841 661.263 403.907L662.258 407.42C662.692 408.866 663.572 409.43 664.899 409.112C665.664 408.91 666.2 408.418 666.506 407.637C666.812 406.799 666.914 405.931 666.812 405.035C666.531 402.461 666.289 399.901 666.085 397.356C666.039 396.625 666.159 395.891 666.434 395.224C666.708 394.556 667.128 393.977 667.654 393.539C691.812 373.787 718.203 363.275 746.826 362.003C748.535 361.945 749.236 362.87 748.93 364.779C745.946 383.374 741.647 401.579 736.035 419.393C735.473 421.157 734.377 422.198 732.744 422.516C730.371 422.95 727.884 422.733 725.282 421.866C723.445 421.258 721.838 421.605 720.46 422.907C720.154 423.196 719.976 423.572 719.925 424.035C719.746 425.162 720.103 425.987 720.996 426.507C723.904 428.213 726.953 429.341 730.142 429.891C730.544 429.965 730.925 430.15 731.249 430.43C731.574 430.711 731.831 431.076 731.999 431.494C732.166 431.912 732.238 432.37 732.207 432.824C732.177 433.279 732.046 433.717 731.825 434.098L700.677 488.105C699.555 490.043 697.999 490.766 696.009 490.274C691.953 489.291 687.807 488.539 683.572 488.019C678.241 487.382 677.679 488.944 681.889 492.703C684.746 495.277 687.973 497.504 691.57 499.384C692.048 499.628 692.479 499.976 692.838 500.409C693.198 500.842 693.478 501.352 693.662 501.908C693.847 502.464 693.934 503.057 693.916 503.651C693.898 504.245 693.777 504.829 693.56 505.37C687.667 520.003 680.868 533.465 673.164 545.756C670.332 550.267 666.888 550.976 662.832 547.882C657.296 543.602 651.301 540.724 644.847 539.249C642.143 538.613 641.812 539.35 643.852 541.461L660.957 559.073C661.396 559.529 661.659 560.164 661.688 560.838C661.716 561.512 661.509 562.172 661.11 562.674C653.253 572.477 644.031 579.259 633.444 583.019C626.862 585.361 618.087 583.51 607.117 577.466ZM683.802 436.571C685.817 436.311 687.093 435.111 687.628 432.971C687.695 432.708 687.7 432.43 687.643 432.165C687.585 431.899 687.468 431.656 687.301 431.458C687.134 431.26 686.925 431.116 686.694 431.039C686.462 430.962 686.217 430.955 685.983 431.019C679.44 432.884 672.322 445.03 667.501 450.366C663.495 454.761 659.873 459.374 656.633 464.203C650.256 473.66 644.082 482.871 638.113 491.836C631.913 501.076 624.528 508.624 619.439 518.644C617.551 522.317 614.923 524.428 611.556 524.977C610.663 525.122 610.166 525.715 610.064 526.756C609.477 532.887 606.888 538.309 602.296 543.023C601.581 543.746 601.339 544.628 601.569 545.669C601.849 546.913 602.933 546.927 604.821 545.713C605.274 545.428 605.655 545.026 605.931 544.541C611.212 535.143 616.99 526.25 623.265 517.863C629.592 509.448 635.714 500.83 641.633 492.009C647.245 483.652 652.998 475.092 658.891 466.329C665.549 456.439 673.585 448.761 679.937 439.087C680.906 437.612 682.195 436.773 683.802 436.571ZM707.72 441.466C707.769 441.293 707.62 441.049 707.281 440.75C706.941 440.45 706.418 440.1 705.742 439.72C705.066 439.34 704.249 438.937 703.339 438.535C702.429 438.132 701.443 437.738 700.437 437.374C699.432 437.01 698.427 436.684 697.479 436.415C696.531 436.145 695.66 435.937 694.915 435.803C694.169 435.668 693.564 435.61 693.134 435.632C692.705 435.653 692.458 435.753 692.409 435.927C692.36 436.1 692.51 436.344 692.849 436.644C693.189 436.943 693.711 437.293 694.388 437.673C695.064 438.053 695.881 438.456 696.791 438.859C697.701 439.261 698.687 439.655 699.693 440.019C700.698 440.383 701.703 440.709 702.651 440.979C703.598 441.248 704.47 441.456 705.215 441.59C705.96 441.725 706.565 441.783 706.995 441.762C707.425 441.74 707.672 441.64 707.72 441.466Z" fill="white"/>
<path d="M679.937 439.087C673.585 448.761 665.549 456.439 658.891 466.329C652.998 475.092 647.245 483.652 641.633 492.009C635.714 500.83 629.592 509.448 623.265 517.863C616.99 526.25 611.212 535.143 605.931 544.541C605.655 545.026 605.274 545.428 604.821 545.713C602.933 546.927 601.849 546.913 601.569 545.669C601.339 544.628 601.581 543.746 602.296 543.023C606.888 538.309 609.477 532.887 610.064 526.756C610.166 525.715 610.663 525.122 611.556 524.977C614.923 524.428 617.551 522.317 619.439 518.644C624.528 508.624 631.913 501.076 638.113 491.836C644.082 482.871 650.256 473.66 656.633 464.203C659.873 459.374 663.495 454.761 667.501 450.366C672.322 445.03 679.44 432.884 685.983 431.019C686.217 430.955 686.462 430.962 686.694 431.039C686.925 431.116 687.134 431.26 687.301 431.458C687.468 431.656 687.585 431.899 687.643 432.165C687.7 432.43 687.695 432.708 687.628 432.971C687.093 435.111 685.817 436.311 683.802 436.571C682.195 436.773 680.906 437.612 679.937 439.087Z" fill="#346830"/>
<path d="M699.693 440.019C703.921 441.549 707.515 442.197 707.72 441.466C707.926 440.736 704.665 438.904 700.437 437.374C696.209 435.844 692.615 435.197 692.409 435.927C692.204 436.657 695.465 438.49 699.693 440.019Z" fill="#346830"/>
</g>
<g opacity="0.1">
<path d="M1161.08 1026.82C1172.86 989.305 1200.85 957.581 1232.52 938.278C1233.44 937.718 1234.04 938.004 1234.31 939.138C1239.21 959.899 1240.94 981.216 1239.52 1003.09C1237.79 1029.61 1229.62 1054.22 1215 1076.92C1199.05 1101.69 1178.37 1122.01 1152.99 1137.89C1152.88 1137.96 1152.76 1138 1152.64 1138C1152.51 1138 1152.39 1137.97 1152.29 1137.9C1152.18 1137.84 1152.09 1137.75 1152.02 1137.63C1151.95 1137.52 1151.91 1137.38 1151.9 1137.25C1149.75 1110.28 1150.45 1084.11 1154 1058.72C1155.5 1047.97 1157.81 1037.22 1161.08 1026.82Z" fill="white"/>
<path d="M1093.73 1081.21C1083.9 1057.61 1084 1028.37 1090.9 1003.02C1091.11 1002.29 1091.5 1002.11 1092.09 1002.5C1102.87 1009.67 1112.39 1018.73 1120.66 1029.69C1130.7 1042.96 1136.94 1058.67 1139.39 1076.8C1142.06 1096.6 1140.71 1116.75 1135.35 1137.25C1135.33 1137.34 1135.28 1137.42 1135.23 1137.48C1135.17 1137.55 1135.1 1137.59 1135.02 1137.62C1134.95 1137.64 1134.87 1137.65 1134.79 1137.63C1134.71 1137.61 1134.64 1137.57 1134.58 1137.51C1122.55 1126.03 1112.18 1113.44 1103.46 1099.75C1099.77 1093.96 1096.45 1087.75 1093.73 1081.21Z" fill="white"/>
</g>
<path opacity="0.1" d="M1015.29 888.485C1013.9 886.069 1012.07 884.195 1009.82 882.864C1003.11 878.879 996.99 874.149 991.474 868.673C986.707 863.939 984.311 858.913 984.276 851.613C984.217 840.742 984.066 829.871 986.566 819.251C986.606 819.086 986.68 818.934 986.783 818.809C986.886 818.683 987.014 818.588 987.156 818.531C987.299 818.474 987.451 818.456 987.601 818.48C987.751 818.505 987.893 818.57 988.015 818.67C993.578 823.232 997.586 830.07 1001.64 836.127C1004.97 841.108 1008.83 845.591 1013.22 849.577C1013.39 849.734 1013.6 849.838 1013.82 849.88C1014.04 849.921 1014.26 849.898 1014.47 849.813C1014.68 849.728 1014.86 849.584 1015 849.394C1015.15 849.204 1015.25 848.976 1015.29 848.73C1015.6 846.949 1015.1 845.38 1013.79 844.022C1007.97 837.974 1002.52 831.344 997.458 824.132C994.899 820.468 991.475 815.998 993.648 811.105C995.214 807.578 996.912 804.197 998.743 800.961C1001.19 796.637 1003.99 792.868 1005.61 787.921C1008.22 779.947 1011.36 772.184 1016.34 766.047C1016.46 765.902 1016.61 765.8 1016.78 765.753C1016.94 765.706 1017.12 765.716 1017.28 765.783C1018.6 766.329 1019.57 767.427 1020.18 769.076C1021.77 773.44 1023.36 777.738 1024.93 781.97C1026.32 785.752 1028.38 789.059 1030.48 792.391C1030.57 792.525 1030.68 792.629 1030.82 792.69C1030.95 792.751 1031.1 792.768 1031.24 792.737C1031.39 792.706 1031.52 792.63 1031.62 792.517C1031.73 792.405 1031.8 792.26 1031.84 792.1C1032.38 789.654 1032.29 787.075 1031.71 784.668C1030.32 778.955 1029.06 773.559 1027.94 768.481C1027 764.262 1030.11 759.62 1032.35 756.552C1039.29 747.091 1046.18 737.847 1053.04 728.819C1053.32 728.45 1053.69 728.189 1054.11 728.071C1054.53 727.953 1054.97 727.983 1055.37 728.157C1056.61 728.686 1057.68 729.44 1058.61 730.419C1065.75 737.966 1073.25 745.129 1081.12 751.91C1083.13 753.646 1084.39 755.802 1084.92 758.377C1085.78 762.609 1086.83 766.986 1083.41 770.319C1075.83 777.725 1068.83 785.32 1062.42 793.106C1058.54 797.8 1059.52 802.588 1061.43 808.182C1062.14 810.272 1063.53 811.136 1065.59 810.774C1069.94 809.994 1074.2 808.5 1078.13 806.251C1083.05 803.448 1083.97 799.017 1085.99 793.423C1089.42 783.914 1092.83 774.247 1092.73 764.103C1092.71 762.005 1093.29 761.767 1094.48 763.389C1096.47 766.122 1098.53 768.868 1100.67 771.628C1103.86 775.754 1106.46 780.815 1108.49 786.81C1110.63 793.132 1110.1 800.022 1110.73 806.661C1111.69 816.818 1110.01 827.716 1106.92 837.304C1105.66 841.192 1104.77 844.961 1104.26 848.611C1103.03 857.331 1101.46 865.169 1099.55 872.125C1097.02 881.317 1085.29 883.393 1078.4 885.826C1071.77 888.154 1064.78 888.313 1058.04 888.762C1055.46 888.939 1054.66 890.367 1055.64 893.047C1055.76 893.373 1055.89 893.691 1056.04 893.999C1056.92 895.86 1058.29 896.874 1060.15 897.041C1064.68 897.429 1069.01 896.883 1073.15 895.401C1079.77 893.03 1086.85 890.676 1094.39 888.339C1094.51 888.3 1094.64 888.302 1094.76 888.345C1094.88 888.387 1094.99 888.468 1095.07 888.577C1095.15 888.687 1095.2 888.82 1095.21 888.961C1095.22 889.102 1095.2 889.245 1095.14 889.371C1094.37 891.072 1093.34 892.562 1092.06 893.841C1087.52 898.373 1083.36 903.222 1079.56 908.388C1077.38 911.368 1074.36 913.264 1070.48 914.075C1060.08 916.244 1052.43 912.528 1043.17 908.269C1043.1 908.233 1043.02 908.22 1042.94 908.232C1042.86 908.243 1042.78 908.278 1042.72 908.333C1042.65 908.388 1042.6 908.461 1042.57 908.545C1042.54 908.629 1042.53 908.721 1042.54 908.812C1043.53 917.743 1045.38 926.035 1048.09 933.688C1048.64 935.24 1048.18 936.09 1046.71 936.24L1039.74 936.981C1038.38 937.122 1037.44 936.483 1036.91 935.063C1034.41 928.257 1032.82 921.243 1032.14 914.022C1032 912.523 1031.51 912.356 1030.67 913.52C1028.77 916.138 1026.27 918.431 1023.17 920.397C1019.69 922.601 1016.23 922.389 1012.77 919.762C1006.9 915.292 1000.94 910.853 994.875 906.444C992.483 904.707 990.629 902.261 989.313 899.104C986.368 892.086 983.968 884.83 982.114 877.336C981.81 876.11 982.114 875.872 983.025 876.622C987.536 880.307 992.768 883.538 998.72 886.316C1004.32 888.925 1009.72 889.939 1014.92 889.357C1015.46 889.296 1015.59 889.005 1015.29 888.485ZM1053.22 770.623C1051.97 774.405 1051.62 778.227 1052.16 782.089C1052.18 782.233 1052.24 782.365 1052.34 782.461C1052.43 782.558 1052.56 782.614 1052.69 782.618C1053.21 782.645 1053.68 782.468 1054.11 782.089C1059.91 776.958 1068.59 770.213 1069.51 761.339C1069.57 760.864 1069.51 760.382 1069.36 759.936C1069.21 759.489 1068.96 759.092 1068.64 758.778C1068.32 758.465 1067.93 758.245 1067.52 758.138C1067.11 758.031 1066.68 758.04 1066.27 758.165C1059.67 760.166 1055.33 764.319 1053.22 770.623ZM1007.32 807.27C1007.58 816.091 1014.13 828.02 1022.16 829.858C1022.29 829.886 1022.41 829.884 1022.54 829.852C1022.66 829.819 1022.78 829.757 1022.88 829.67C1022.98 829.583 1023.07 829.472 1023.13 829.345C1023.19 829.217 1023.23 829.077 1023.24 828.932C1023.28 828.315 1023.1 827.799 1022.69 827.385C1020.31 824.996 1018.22 822.597 1016.41 820.19C1013.33 816.091 1011.46 810.999 1008.36 806.82C1007.63 805.815 1007.28 805.965 1007.32 807.27ZM1062.55 849.854C1060.1 851.283 1058.16 851.891 1056.51 854.655C1056.38 854.871 1056.3 855.119 1056.27 855.377C1056.24 855.636 1056.27 855.899 1056.35 856.144C1056.42 856.389 1056.55 856.609 1056.72 856.787C1056.89 856.965 1057.09 857.095 1057.31 857.168C1057.84 857.344 1058.4 857.379 1058.99 857.274C1064.65 856.242 1069.88 854.95 1074.67 853.399C1075.03 853.281 1075.36 853.029 1075.58 852.682C1075.81 852.335 1075.93 851.912 1075.92 851.481C1075.73 844.115 1066.16 847.765 1062.55 849.854ZM1069.18 871.258C1069.23 870.945 1069.12 870.606 1068.86 870.262C1068.6 869.918 1068.2 869.575 1067.68 869.253C1067.16 868.931 1066.53 868.636 1065.83 868.386C1065.12 868.135 1064.36 867.933 1063.58 867.791C1062.8 867.65 1062.02 867.572 1061.28 867.561C1060.54 867.55 1059.86 867.608 1059.28 867.73C1058.69 867.852 1058.22 868.036 1057.88 868.271C1057.54 868.507 1057.34 868.79 1057.3 869.104C1057.25 869.418 1057.36 869.756 1057.62 870.1C1057.88 870.445 1058.28 870.787 1058.8 871.109C1059.32 871.431 1059.95 871.726 1060.65 871.977C1061.36 872.228 1062.12 872.429 1062.9 872.571C1063.68 872.712 1064.46 872.791 1065.2 872.801C1065.94 872.812 1066.62 872.755 1067.2 872.633C1067.79 872.511 1068.26 872.327 1068.6 872.091C1068.94 871.855 1069.14 871.572 1069.18 871.258ZM1022.58 900.75C1022.47 900.386 1022.21 900.081 1021.82 899.854C1021.43 899.628 1020.9 899.483 1020.28 899.428C1019.66 899.374 1018.95 899.411 1018.2 899.537C1017.45 899.663 1016.66 899.876 1015.89 900.163C1014.33 900.744 1012.91 901.593 1011.96 902.524C1011.01 903.456 1010.6 904.392 1010.81 905.129C1010.92 905.493 1011.17 905.798 1011.57 906.025C1011.96 906.252 1012.48 906.396 1013.1 906.451C1013.72 906.505 1014.43 906.469 1015.19 906.343C1015.94 906.216 1016.73 906.004 1017.5 905.716C1019.06 905.135 1020.47 904.286 1021.42 903.355C1022.38 902.424 1022.79 901.487 1022.58 900.75Z" fill="white"/>
<g opacity="0.1">
<path d="M1494.08 27.8239C1505.86 -9.69506 1533.85 -41.4194 1565.52 -60.7218C1566.44 -61.2824 1567.04 -60.9958 1567.31 -59.8618C1572.21 -39.1007 1573.94 -17.7838 1572.52 4.0888C1570.79 30.6106 1562.62 55.2211 1548 77.9203C1532.05 102.687 1511.37 123.011 1485.99 138.894C1485.88 138.962 1485.76 138.998 1485.64 139C1485.51 139.002 1485.39 138.969 1485.29 138.904C1485.18 138.84 1485.09 138.745 1485.02 138.63C1484.95 138.515 1484.91 138.383 1484.9 138.246C1482.75 111.283 1483.45 85.1069 1487 59.7185C1488.5 48.9687 1490.81 38.2168 1494.08 27.8239Z" fill="white"/>
<path d="M1426.73 82.2061C1416.9 58.6121 1417 29.3669 1423.9 4.02478C1424.11 3.28699 1424.5 3.11275 1425.09 3.50207C1435.87 10.6729 1445.39 19.734 1453.66 30.6855C1463.7 43.9599 1469.94 59.6661 1472.39 77.8039C1475.06 97.5967 1473.71 117.746 1468.35 138.251C1468.33 138.338 1468.28 138.417 1468.23 138.481C1468.17 138.545 1468.1 138.592 1468.02 138.618C1467.95 138.643 1467.87 138.647 1467.79 138.628C1467.71 138.609 1467.64 138.568 1467.58 138.508C1455.55 127.025 1445.18 114.44 1436.46 100.752C1432.77 94.9571 1429.45 88.7455 1426.73 82.2061Z" fill="white"/>
</g>
<g opacity="0.1">
<path d="M1173.12 254.466C1173.88 246.716 1173.3 240.122 1171.36 234.685C1170.44 232.14 1168.75 230.767 1166.31 230.564C1165.06 230.449 1163.92 229.986 1162.9 229.176L1159.95 226.834C1144.14 209.974 1140.08 190.786 1147.79 169.27C1152.33 156.632 1158.72 145.484 1166.96 135.824C1167.34 135.383 1167.8 135.045 1168.31 134.836C1168.83 134.628 1169.38 134.554 1169.92 134.621C1170.46 134.688 1170.98 134.894 1171.44 135.222C1171.9 135.551 1172.29 135.994 1172.58 136.519C1175.31 141.406 1178.35 145.729 1181.69 149.489C1183.3 151.282 1183.77 150.964 1183.1 148.535C1181.47 142.404 1179.09 136.331 1175.95 130.315C1175.72 129.86 1175.63 129.332 1175.7 128.82C1175.77 128.307 1175.99 127.84 1176.33 127.496L1222.75 79.5619C1224.87 77.3929 1226.37 77.8412 1227.26 80.9067L1228.26 84.4204C1228.69 85.8663 1229.57 86.4303 1230.9 86.1121C1231.66 85.9097 1232.2 85.4181 1232.51 84.6373C1232.81 83.7986 1232.91 82.931 1232.81 82.0345C1232.53 79.4607 1232.29 76.9013 1232.08 74.3564C1232.04 73.6249 1232.16 72.8912 1232.43 72.2237C1232.71 71.5562 1233.13 70.9766 1233.65 70.5391C1257.81 50.7872 1284.2 40.275 1312.83 39.0026C1314.53 38.9447 1315.24 39.8701 1314.93 41.7788C1311.95 60.3739 1307.65 78.5787 1302.03 96.393C1301.47 98.1571 1300.38 99.1982 1298.74 99.5163C1296.37 99.9501 1293.88 99.7332 1291.28 98.8656C1289.45 98.2583 1287.84 98.6053 1286.46 99.9067C1286.15 100.196 1285.98 100.572 1285.92 101.035C1285.75 102.162 1286.1 102.987 1287 103.507C1289.9 105.213 1292.95 106.341 1296.14 106.891C1296.54 106.965 1296.93 107.15 1297.25 107.43C1297.57 107.711 1297.83 108.076 1298 108.494C1298.17 108.912 1298.24 109.37 1298.21 109.824C1298.18 110.279 1298.05 110.717 1297.83 111.098L1266.68 165.105C1265.55 167.043 1264 167.766 1262.01 167.274C1257.95 166.291 1253.81 165.539 1249.57 165.019C1244.24 164.382 1243.68 165.944 1247.89 169.703C1250.75 172.277 1253.97 174.504 1257.57 176.384C1258.05 176.628 1258.48 176.976 1258.84 177.409C1259.2 177.842 1259.48 178.352 1259.66 178.908C1259.85 179.464 1259.93 180.057 1259.92 180.651C1259.9 181.245 1259.78 181.829 1259.56 182.37C1253.67 197.003 1246.87 210.465 1239.16 222.756C1236.33 227.267 1232.89 227.976 1228.83 224.882C1223.3 220.602 1217.3 217.724 1210.85 216.249C1208.14 215.613 1207.81 216.35 1209.85 218.461L1226.96 236.073C1227.4 236.529 1227.66 237.164 1227.69 237.838C1227.72 238.512 1227.51 239.172 1227.11 239.674C1219.25 249.477 1210.03 256.259 1199.44 260.019C1192.86 262.361 1184.09 260.51 1173.12 254.466ZM1249.8 113.571C1251.82 113.311 1253.09 112.111 1253.63 109.971C1253.7 109.708 1253.7 109.43 1253.64 109.165C1253.59 108.899 1253.47 108.656 1253.3 108.458C1253.13 108.26 1252.93 108.116 1252.69 108.039C1252.46 107.962 1252.22 107.955 1251.98 108.019C1245.44 109.884 1238.32 122.03 1233.5 127.366C1229.5 131.761 1225.87 136.374 1222.63 141.203C1216.26 150.66 1210.08 159.871 1204.11 168.836C1197.91 178.076 1190.53 185.624 1185.44 195.644C1183.55 199.317 1180.92 201.428 1177.56 201.977C1176.66 202.122 1176.17 202.715 1176.06 203.756C1175.48 209.887 1172.89 215.309 1168.3 220.023C1167.58 220.746 1167.34 221.628 1167.57 222.669C1167.85 223.913 1168.93 223.927 1170.82 222.713C1171.27 222.428 1171.65 222.026 1171.93 221.541C1177.21 212.143 1182.99 203.25 1189.27 194.863C1195.59 186.448 1201.71 177.83 1207.63 169.009C1213.25 160.652 1219 152.092 1224.89 143.329C1231.55 133.439 1239.58 125.761 1245.94 116.087C1246.91 114.612 1248.19 113.773 1249.8 113.571ZM1273.72 118.466C1273.77 118.293 1273.62 118.049 1273.28 117.75C1272.94 117.45 1272.42 117.1 1271.74 116.72C1271.07 116.34 1270.25 115.937 1269.34 115.535C1268.43 115.132 1267.44 114.738 1266.44 114.374C1265.43 114.01 1264.43 113.684 1263.48 113.415C1262.53 113.145 1261.66 112.937 1260.91 112.803C1260.17 112.668 1259.56 112.61 1259.13 112.632C1258.7 112.653 1258.46 112.753 1258.41 112.927C1258.36 113.1 1258.51 113.344 1258.85 113.644C1259.19 113.943 1259.71 114.293 1260.39 114.673C1261.06 115.053 1261.88 115.456 1262.79 115.859C1263.7 116.261 1264.69 116.655 1265.69 117.019C1266.7 117.383 1267.7 117.709 1268.65 117.979C1269.6 118.248 1270.47 118.456 1271.21 118.59C1271.96 118.725 1272.57 118.783 1273 118.762C1273.43 118.74 1273.67 118.64 1273.72 118.466Z" fill="white"/>
<path d="M1245.94 116.087C1239.58 125.761 1231.55 133.439 1224.89 143.329C1219 152.092 1213.25 160.652 1207.63 169.009C1201.71 177.83 1195.59 186.448 1189.27 194.863C1182.99 203.25 1177.21 212.143 1171.93 221.541C1171.65 222.026 1171.27 222.428 1170.82 222.713C1168.93 223.927 1167.85 223.913 1167.57 222.669C1167.34 221.628 1167.58 220.746 1168.3 220.023C1172.89 215.309 1175.48 209.887 1176.06 203.756C1176.17 202.715 1176.66 202.122 1177.56 201.977C1180.92 201.428 1183.55 199.317 1185.44 195.644C1190.53 185.624 1197.91 178.076 1204.11 168.836C1210.08 159.871 1216.26 150.66 1222.63 141.203C1225.87 136.374 1229.5 131.761 1233.5 127.366C1238.32 122.03 1245.44 109.884 1251.98 108.019C1252.22 107.955 1252.46 107.962 1252.69 108.039C1252.93 108.116 1253.13 108.26 1253.3 108.458C1253.47 108.656 1253.59 108.899 1253.64 109.165C1253.7 109.43 1253.7 109.708 1253.63 109.971C1253.09 112.111 1251.82 113.311 1249.8 113.571C1248.19 113.773 1246.91 114.612 1245.94 116.087Z" fill="#346830"/>
<path d="M1265.69 117.019C1269.92 118.549 1273.51 119.197 1273.72 118.466C1273.93 117.736 1270.67 115.904 1266.44 114.374C1262.21 112.844 1258.61 112.197 1258.41 112.927C1258.2 113.657 1261.46 115.49 1265.69 117.019Z" fill="#346830"/>
</g>
<g opacity="0.1">
<path d="M1305.12 732.466C1305.88 724.716 1305.3 718.122 1303.36 712.685C1302.44 710.14 1300.75 708.767 1298.31 708.564C1297.06 708.449 1295.92 707.986 1294.9 707.176L1291.95 704.834C1276.14 687.974 1272.08 668.786 1279.79 647.27C1284.33 634.632 1290.72 623.484 1298.96 613.824C1299.34 613.383 1299.8 613.045 1300.31 612.836C1300.83 612.628 1301.38 612.554 1301.92 612.621C1302.46 612.688 1302.98 612.894 1303.44 613.222C1303.9 613.551 1304.29 613.994 1304.58 614.519C1307.31 619.406 1310.35 623.729 1313.69 627.489C1315.3 629.282 1315.77 628.964 1315.1 626.535C1313.47 620.404 1311.09 614.331 1307.95 608.315C1307.72 607.86 1307.63 607.332 1307.7 606.82C1307.77 606.307 1307.99 605.84 1308.33 605.496L1354.75 557.562C1356.87 555.393 1358.37 555.841 1359.26 558.907L1360.26 562.42C1360.69 563.866 1361.57 564.43 1362.9 564.112C1363.66 563.91 1364.2 563.418 1364.51 562.637C1364.81 561.799 1364.91 560.931 1364.81 560.035C1364.53 557.461 1364.29 554.901 1364.08 552.356C1364.04 551.625 1364.16 550.891 1364.43 550.224C1364.71 549.556 1365.13 548.977 1365.65 548.539C1389.81 528.787 1416.2 518.275 1444.83 517.003C1446.53 516.945 1447.24 517.87 1446.93 519.779C1443.95 538.374 1439.65 556.579 1434.03 574.393C1433.47 576.157 1432.38 577.198 1430.74 577.516C1428.37 577.95 1425.88 577.733 1423.28 576.866C1421.45 576.258 1419.84 576.605 1418.46 577.907C1418.15 578.196 1417.98 578.572 1417.92 579.035C1417.75 580.162 1418.1 580.987 1419 581.507C1421.9 583.213 1424.95 584.341 1428.14 584.891C1428.54 584.965 1428.93 585.15 1429.25 585.43C1429.57 585.711 1429.83 586.076 1430 586.494C1430.17 586.912 1430.24 587.37 1430.21 587.824C1430.18 588.279 1430.05 588.717 1429.83 589.098L1398.68 643.105C1397.55 645.043 1396 645.766 1394.01 645.274C1389.95 644.291 1385.81 643.539 1381.57 643.019C1376.24 642.382 1375.68 643.944 1379.89 647.703C1382.75 650.277 1385.97 652.504 1389.57 654.384C1390.05 654.628 1390.48 654.976 1390.84 655.409C1391.2 655.842 1391.48 656.352 1391.66 656.908C1391.85 657.464 1391.93 658.057 1391.92 658.651C1391.9 659.245 1391.78 659.829 1391.56 660.37C1385.67 675.003 1378.87 688.465 1371.16 700.756C1368.33 705.267 1364.89 705.976 1360.83 702.882C1355.3 698.602 1349.3 695.724 1342.85 694.249C1340.14 693.613 1339.81 694.35 1341.85 696.461L1358.96 714.073C1359.4 714.529 1359.66 715.164 1359.69 715.838C1359.72 716.512 1359.51 717.172 1359.11 717.674C1351.25 727.477 1342.03 734.259 1331.44 738.019C1324.86 740.361 1316.09 738.51 1305.12 732.466ZM1381.8 591.571C1383.82 591.311 1385.09 590.111 1385.63 587.971C1385.7 587.708 1385.7 587.43 1385.64 587.165C1385.59 586.899 1385.47 586.656 1385.3 586.458C1385.13 586.26 1384.93 586.116 1384.69 586.039C1384.46 585.962 1384.22 585.955 1383.98 586.019C1377.44 587.884 1370.32 600.03 1365.5 605.366C1361.5 609.761 1357.87 614.374 1354.63 619.203C1348.26 628.66 1342.08 637.871 1336.11 646.836C1329.91 656.076 1322.53 663.624 1317.44 673.644C1315.55 677.317 1312.92 679.428 1309.56 679.977C1308.66 680.122 1308.17 680.715 1308.06 681.756C1307.48 687.887 1304.89 693.309 1300.3 698.023C1299.58 698.746 1299.34 699.628 1299.57 700.669C1299.85 701.913 1300.93 701.927 1302.82 700.713C1303.27 700.428 1303.65 700.026 1303.93 699.541C1309.21 690.143 1314.99 681.25 1321.27 672.863C1327.59 664.448 1333.71 655.83 1339.63 647.009C1345.25 638.652 1351 630.092 1356.89 621.329C1363.55 611.439 1371.58 603.761 1377.94 594.087C1378.91 592.612 1380.19 591.773 1381.8 591.571ZM1405.72 596.466C1405.77 596.293 1405.62 596.049 1405.28 595.75C1404.94 595.45 1404.42 595.1 1403.74 594.72C1403.07 594.34 1402.25 593.937 1401.34 593.535C1400.43 593.132 1399.44 592.738 1398.44 592.374C1397.43 592.01 1396.43 591.684 1395.48 591.415C1394.53 591.145 1393.66 590.937 1392.91 590.803C1392.17 590.668 1391.56 590.61 1391.13 590.632C1390.7 590.653 1390.46 590.753 1390.41 590.927C1390.36 591.1 1390.51 591.344 1390.85 591.644C1391.19 591.943 1391.71 592.293 1392.39 592.673C1393.06 593.053 1393.88 593.456 1394.79 593.859C1395.7 594.261 1396.69 594.655 1397.69 595.019C1398.7 595.383 1399.7 595.709 1400.65 595.979C1401.6 596.248 1402.47 596.456 1403.21 596.59C1403.96 596.725 1404.57 596.783 1405 596.762C1405.43 596.74 1405.67 596.64 1405.72 596.466Z" fill="white"/>
<path d="M1377.94 594.087C1371.58 603.761 1363.55 611.439 1356.89 621.329C1351 630.092 1345.25 638.652 1339.63 647.009C1333.71 655.83 1327.59 664.448 1321.27 672.863C1314.99 681.25 1309.21 690.143 1303.93 699.541C1303.65 700.026 1303.27 700.428 1302.82 700.713C1300.93 701.927 1299.85 701.913 1299.57 700.669C1299.34 699.628 1299.58 698.746 1300.3 698.023C1304.89 693.309 1307.48 687.887 1308.06 681.756C1308.17 680.715 1308.66 680.122 1309.56 679.977C1312.92 679.428 1315.55 677.317 1317.44 673.644C1322.53 663.624 1329.91 656.076 1336.11 646.836C1342.08 637.871 1348.26 628.66 1354.63 619.203C1357.87 614.374 1361.5 609.761 1365.5 605.366C1370.32 600.03 1377.44 587.884 1383.98 586.019C1384.22 585.955 1384.46 585.962 1384.69 586.039C1384.93 586.116 1385.13 586.26 1385.3 586.458C1385.47 586.656 1385.59 586.899 1385.64 587.165C1385.7 587.43 1385.7 587.708 1385.63 587.971C1385.09 590.111 1383.82 591.311 1381.8 591.571C1380.19 591.773 1378.91 592.612 1377.94 594.087Z" fill="#346830"/>
<path d="M1397.69 595.019C1401.92 596.549 1405.51 597.197 1405.72 596.466C1405.93 595.736 1402.67 593.904 1398.44 592.374C1394.21 590.844 1390.61 590.197 1390.41 590.927C1390.2 591.657 1393.46 593.49 1397.69 595.019Z" fill="#346830"/>
</g>
<g opacity="0.1">
<path d="M1371.12 397.466C1371.88 389.716 1371.3 383.122 1369.36 377.685C1368.44 375.14 1366.75 373.767 1364.31 373.564C1363.06 373.449 1361.92 372.986 1360.9 372.176L1357.95 369.834C1342.14 352.974 1338.08 333.786 1345.79 312.27C1350.33 299.632 1356.72 288.484 1364.96 278.824C1365.34 278.383 1365.8 278.045 1366.31 277.836C1366.83 277.628 1367.38 277.554 1367.92 277.621C1368.46 277.688 1368.98 277.894 1369.44 278.222C1369.9 278.551 1370.29 278.994 1370.58 279.519C1373.31 284.406 1376.35 288.729 1379.69 292.489C1381.3 294.282 1381.77 293.964 1381.1 291.535C1379.47 285.404 1377.09 279.331 1373.95 273.315C1373.72 272.86 1373.63 272.332 1373.7 271.82C1373.77 271.307 1373.99 270.84 1374.33 270.496L1420.75 222.562C1422.87 220.393 1424.37 220.841 1425.26 223.907L1426.26 227.42C1426.69 228.866 1427.57 229.43 1428.9 229.112C1429.66 228.91 1430.2 228.418 1430.51 227.637C1430.81 226.799 1430.91 225.931 1430.81 225.035C1430.53 222.461 1430.29 219.901 1430.08 217.356C1430.04 216.625 1430.16 215.891 1430.43 215.224C1430.71 214.556 1431.13 213.977 1431.65 213.539C1455.81 193.787 1482.2 183.275 1510.83 182.003C1512.53 181.945 1513.24 182.87 1512.93 184.779C1509.95 203.374 1505.65 221.579 1500.03 239.393C1499.47 241.157 1498.38 242.198 1496.74 242.516C1494.37 242.95 1491.88 242.733 1489.28 241.866C1487.45 241.258 1485.84 241.605 1484.46 242.907C1484.15 243.196 1483.98 243.572 1483.92 244.035C1483.75 245.162 1484.1 245.987 1485 246.507C1487.9 248.213 1490.95 249.341 1494.14 249.891C1494.54 249.965 1494.93 250.15 1495.25 250.43C1495.57 250.711 1495.83 251.076 1496 251.494C1496.17 251.912 1496.24 252.37 1496.21 252.824C1496.18 253.279 1496.05 253.717 1495.83 254.098L1464.68 308.105C1463.55 310.043 1462 310.766 1460.01 310.274C1455.95 309.291 1451.81 308.539 1447.57 308.019C1442.24 307.382 1441.68 308.944 1445.89 312.703C1448.75 315.277 1451.97 317.504 1455.57 319.384C1456.05 319.628 1456.48 319.976 1456.84 320.409C1457.2 320.842 1457.48 321.352 1457.66 321.908C1457.85 322.464 1457.93 323.057 1457.92 323.651C1457.9 324.245 1457.78 324.829 1457.56 325.37C1451.67 340.003 1444.87 353.465 1437.16 365.756C1434.33 370.267 1430.89 370.976 1426.83 367.882C1421.3 363.602 1415.3 360.724 1408.85 359.249C1406.14 358.613 1405.81 359.35 1407.85 361.461L1424.96 379.073C1425.4 379.529 1425.66 380.164 1425.69 380.838C1425.72 381.512 1425.51 382.172 1425.11 382.674C1417.25 392.477 1408.03 399.259 1397.44 403.019C1390.86 405.361 1382.09 403.51 1371.12 397.466ZM1447.8 256.571C1449.82 256.311 1451.09 255.111 1451.63 252.971C1451.7 252.708 1451.7 252.43 1451.64 252.165C1451.59 251.899 1451.47 251.656 1451.3 251.458C1451.13 251.26 1450.93 251.116 1450.69 251.039C1450.46 250.962 1450.22 250.955 1449.98 251.019C1443.44 252.884 1436.32 265.03 1431.5 270.366C1427.5 274.761 1423.87 279.374 1420.63 284.203C1414.26 293.66 1408.08 302.871 1402.11 311.836C1395.91 321.076 1388.53 328.624 1383.44 338.644C1381.55 342.317 1378.92 344.428 1375.56 344.977C1374.66 345.122 1374.17 345.715 1374.06 346.756C1373.48 352.887 1370.89 358.309 1366.3 363.023C1365.58 363.746 1365.34 364.628 1365.57 365.669C1365.85 366.913 1366.93 366.927 1368.82 365.713C1369.27 365.428 1369.65 365.026 1369.93 364.541C1375.21 355.143 1380.99 346.25 1387.27 337.863C1393.59 329.448 1399.71 320.83 1405.63 312.009C1411.25 303.652 1417 295.092 1422.89 286.329C1429.55 276.439 1437.58 268.761 1443.94 259.087C1444.91 257.612 1446.19 256.773 1447.8 256.571ZM1471.72 261.466C1471.77 261.293 1471.62 261.049 1471.28 260.75C1470.94 260.45 1470.42 260.1 1469.74 259.72C1469.07 259.34 1468.25 258.937 1467.34 258.535C1466.43 258.132 1465.44 257.738 1464.44 257.374C1463.43 257.01 1462.43 256.684 1461.48 256.415C1460.53 256.145 1459.66 255.937 1458.91 255.803C1458.17 255.668 1457.56 255.61 1457.13 255.632C1456.7 255.653 1456.46 255.753 1456.41 255.927C1456.36 256.1 1456.51 256.344 1456.85 256.644C1457.19 256.943 1457.71 257.293 1458.39 257.673C1459.06 258.053 1459.88 258.456 1460.79 258.859C1461.7 259.261 1462.69 259.655 1463.69 260.019C1464.7 260.383 1465.7 260.709 1466.65 260.979C1467.6 261.248 1468.47 261.456 1469.21 261.59C1469.96 261.725 1470.57 261.783 1471 261.762C1471.43 261.74 1471.67 261.64 1471.72 261.466Z" fill="white"/>
<path d="M1443.94 259.087C1437.58 268.761 1429.55 276.439 1422.89 286.329C1417 295.092 1411.25 303.652 1405.63 312.009C1399.71 320.83 1393.59 329.448 1387.27 337.863C1380.99 346.25 1375.21 355.143 1369.93 364.541C1369.65 365.026 1369.27 365.428 1368.82 365.713C1366.93 366.927 1365.85 366.913 1365.57 365.669C1365.34 364.628 1365.58 363.746 1366.3 363.023C1370.89 358.309 1373.48 352.887 1374.06 346.756C1374.17 345.715 1374.66 345.122 1375.56 344.977C1378.92 344.428 1381.55 342.317 1383.44 338.644C1388.53 328.624 1395.91 321.076 1402.11 311.836C1408.08 302.871 1414.26 293.66 1420.63 284.203C1423.87 279.374 1427.5 274.761 1431.5 270.366C1436.32 265.03 1443.44 252.884 1449.98 251.019C1450.22 250.955 1450.46 250.962 1450.69 251.039C1450.93 251.116 1451.13 251.26 1451.3 251.458C1451.47 251.656 1451.59 251.899 1451.64 252.165C1451.7 252.43 1451.7 252.708 1451.63 252.971C1451.09 255.111 1449.82 256.311 1447.8 256.571C1446.19 256.773 1444.91 257.612 1443.94 259.087Z" fill="#346830"/>
<path d="M1463.69 260.019C1467.92 261.549 1471.51 262.197 1471.72 261.466C1471.93 260.736 1468.67 258.904 1464.44 257.374C1460.21 255.844 1456.61 255.197 1456.41 255.927C1456.2 256.657 1459.46 258.49 1463.69 260.019Z" fill="#346830"/>
</g>
<defs>
<clipPath id="clip0_0_1">
<rect width="1440" height="1024" fill="white"/>
</clipPath>
</defs>
</svg>
